<svg width="315" height="233" viewBox="0 0 315 233" fill="none" xmlns="http://www.w3.org/2000/svg">
<path d="M228.229 97.5204H82.5989C77.4847 97.5204 73.3389 101.666 73.3389 106.78V184.39C73.3389 189.505 77.4847 193.65 82.5989 193.65H228.229C233.343 193.65 237.489 189.505 237.489 184.39V106.78C237.489 101.666 233.343 97.5204 228.229 97.5204Z" fill="white"/>
<path d="M228.219 194.15H82.5989C80.0112 194.148 77.5302 193.119 75.7004 191.289C73.8706 189.459 72.8415 186.978 72.8389 184.39V106.79C72.8415 104.202 73.8703 101.72 75.6998 99.8884C77.5293 98.0571 80.0102 97.0257 82.5989 97.0204H228.219C230.807 97.0257 233.288 98.0571 235.118 99.8884C236.947 101.72 237.976 104.202 237.979 106.79V184.39C237.976 186.978 236.947 189.459 235.117 191.289C233.288 193.119 230.807 194.148 228.219 194.15ZM82.5989 98.0204C80.2746 98.0231 78.0465 98.9482 76.404 100.593C74.7615 102.237 73.8389 104.466 73.8389 106.79V184.39C73.8415 186.713 74.7653 188.94 76.4075 190.582C78.0498 192.224 80.2764 193.148 82.5989 193.15H228.219C230.541 193.148 232.768 192.224 234.41 190.582C236.052 188.94 236.976 186.713 236.979 184.39V106.79C236.979 104.466 236.056 102.237 234.414 100.593C232.771 98.9482 230.543 98.0231 228.219 98.0204H82.5989Z" fill="#231F20"/>
<path d="M180.989 159.33H129.839C128.061 159.33 126.619 160.772 126.619 162.55V183.63C126.619 185.409 128.061 186.85 129.839 186.85H180.989C182.767 186.85 184.209 185.409 184.209 183.63V162.55C184.209 160.772 182.767 159.33 180.989 159.33Z" fill="white"/>
<path d="M180.989 187.35H129.829C128.844 187.348 127.901 186.955 127.205 186.257C126.51 185.56 126.119 184.615 126.119 183.63V162.54C126.119 161.556 126.51 160.613 127.206 159.917C127.902 159.221 128.845 158.83 129.829 158.83H180.989C181.973 158.83 182.917 159.221 183.613 159.917C184.308 160.613 184.699 161.556 184.699 162.54V183.63C184.699 184.615 184.309 185.56 183.613 186.257C182.918 186.955 181.974 187.348 180.989 187.35ZM129.829 159.83C129.11 159.83 128.421 160.116 127.913 160.624C127.405 161.132 127.119 161.822 127.119 162.54V183.63C127.118 183.987 127.187 184.341 127.323 184.671C127.458 185.001 127.658 185.3 127.909 185.553C128.161 185.806 128.46 186.006 128.79 186.143C129.119 186.28 129.472 186.35 129.829 186.35H180.989C181.346 186.35 181.699 186.28 182.029 186.143C182.358 186.006 182.657 185.806 182.909 185.553C183.161 185.3 183.36 185.001 183.496 184.671C183.631 184.341 183.7 183.987 183.699 183.63V162.54C183.699 161.822 183.414 161.132 182.905 160.624C182.397 160.116 181.708 159.83 180.989 159.83H129.829Z" fill="black"/>
<path d="M222.819 104.32H87.9989C85.1602 104.32 82.8589 106.622 82.8589 109.46V146.64C82.8589 149.479 85.1602 151.78 87.9989 151.78H222.819C225.658 151.78 227.959 149.479 227.959 146.64V109.46C227.959 106.622 225.658 104.32 222.819 104.32Z" fill="white"/>
<path d="M222.819 152.28H87.9989C86.5039 152.278 85.0709 151.683 84.0137 150.626C82.9566 149.568 82.3615 148.135 82.3589 146.64V109.47C82.3589 107.974 82.9528 106.538 84.0102 105.479C85.0676 104.42 86.5022 103.823 87.9989 103.82H222.819C224.316 103.823 225.75 104.42 226.808 105.479C227.865 106.538 228.459 107.974 228.459 109.47V146.64C228.456 148.135 227.861 149.568 226.804 150.626C225.747 151.683 224.314 152.278 222.819 152.28ZM87.9989 104.82C86.7674 104.823 85.5872 105.314 84.7173 106.186C83.8474 107.058 83.3589 108.239 83.3589 109.47V146.64C83.3589 147.871 83.8477 149.051 84.7179 149.921C85.5881 150.792 86.7683 151.28 87.9989 151.28H222.819C224.049 151.28 225.23 150.792 226.1 149.921C226.97 149.051 227.459 147.871 227.459 146.64V109.47C227.459 108.239 226.97 107.058 226.1 106.186C225.231 105.314 224.05 104.823 222.819 104.82H87.9989Z" fill="black"/>
<path d="M85.2388 200.93H119.419C120.342 198.686 121.449 196.522 122.729 194.46C128.169 186.75 135.659 181.99 139.729 171.11C143.799 160.23 145.169 151.61 141.989 150.02C138.809 148.43 134.989 161.13 130.879 164.31C130.879 164.31 127.789 149.04 130.279 142.24C132.769 135.44 137.859 130.34 137.179 126.24C136.499 122.14 134.609 123.24 131.569 125.82C129.979 127.18 127.329 131.56 127.329 131.56C127.583 129.333 128.331 127.191 129.519 125.29C132.619 120.68 125.289 118.64 119.849 126.8C119.849 126.8 121.969 118.41 117.849 120.9C113.729 123.39 109.529 133 109.529 133C109.529 133 111.799 120.3 106.589 123.7C101.379 127.1 99.4088 143.43 100.089 150.7C100.769 157.97 102.289 174.81 97.6688 180.86C96.1988 182.84 91.2288 190.93 85.2388 200.93Z" fill="white"/>
<path d="M119.419 201.43H85.2391C85.1506 201.43 85.0637 201.406 84.9866 201.363C84.9096 201.319 84.8451 201.256 84.7991 201.18C84.7523 201.104 84.7275 201.015 84.7275 200.925C84.7275 200.835 84.7523 200.747 84.7991 200.67C91.7991 189.1 95.9591 182.33 97.3091 180.55C101.869 174.55 100.249 157.27 99.6391 150.75C98.9191 143.09 100.919 126.85 106.349 123.3C107.479 122.57 108.429 122.44 109.169 122.94C110.659 123.94 110.689 127.4 110.459 130.03C112.059 126.95 114.839 122.2 117.629 120.5C118.629 119.88 119.449 119.79 120.049 120.24C121.049 120.98 120.989 123.09 120.759 124.78C123.389 121.69 126.159 120.66 128.059 120.78C128.56 120.777 129.052 120.908 129.484 121.16C129.917 121.411 130.274 121.774 130.519 122.21C130.732 122.775 130.79 123.385 130.688 123.979C130.586 124.573 130.328 125.129 129.939 125.59C129.242 126.658 128.709 127.824 128.359 129.05C129.18 127.749 130.147 126.544 131.239 125.46C133.339 123.66 134.789 122.7 135.979 123.14C136.839 123.45 137.369 124.41 137.669 126.14C138.099 128.73 136.429 131.59 134.499 134.91C133.033 137.283 131.778 139.779 130.749 142.37C128.669 148.04 130.609 159.98 131.209 163.3C132.927 161.209 134.393 158.923 135.579 156.49C137.939 152.16 139.989 148.42 142.219 149.49C146.869 151.82 142.349 165.49 140.219 171.2C137.509 178.42 133.309 183 129.219 187.42C127.039 189.707 125.005 192.128 123.129 194.67C121.866 196.704 120.773 198.838 119.859 201.05C119.835 201.152 119.779 201.243 119.7 201.311C119.621 201.379 119.523 201.421 119.419 201.43ZM86.1191 200.43H119.119C120.023 198.259 121.103 196.165 122.349 194.17C124.253 191.593 126.32 189.142 128.539 186.83C132.539 182.47 136.669 177.97 139.309 170.93C143.539 159.65 144.499 151.81 141.819 150.47C140.449 149.77 138.349 153.62 136.499 157.01C134.829 160.08 133.089 163.26 131.239 164.7C131.173 164.755 131.093 164.79 131.009 164.802C130.924 164.814 130.838 164.804 130.759 164.77C130.679 164.743 130.608 164.696 130.552 164.632C130.496 164.569 130.457 164.493 130.439 164.41C130.319 163.78 127.349 148.92 129.859 142.07C130.907 139.422 132.189 136.872 133.689 134.45C135.519 131.3 137.099 128.58 136.689 126.34C136.469 125.03 136.109 124.24 135.689 124.07C134.919 123.8 133.429 124.94 131.939 126.22C130.449 127.5 127.839 131.8 127.809 131.84C127.751 131.937 127.663 132.011 127.557 132.051C127.452 132.091 127.336 132.094 127.229 132.06C127.122 132.024 127.03 131.953 126.967 131.859C126.904 131.765 126.873 131.653 126.879 131.54C127.139 129.226 127.918 127.001 129.159 125.03C129.442 124.711 129.639 124.325 129.73 123.908C129.821 123.492 129.804 123.058 129.679 122.65C129.508 122.375 129.267 122.15 128.981 121.997C128.694 121.845 128.373 121.77 128.049 121.78C126.199 121.64 123.049 122.98 120.319 127.1C120.253 127.198 120.156 127.269 120.043 127.302C119.93 127.334 119.809 127.326 119.701 127.278C119.594 127.23 119.507 127.146 119.455 127.041C119.403 126.935 119.391 126.815 119.419 126.7C119.909 124.7 120.269 121.61 119.499 121.04C119.189 120.81 118.549 121.14 118.199 121.35C114.289 123.74 110.119 133.13 110.079 133.22C110.03 133.332 109.943 133.422 109.832 133.474C109.722 133.526 109.596 133.535 109.479 133.5C109.363 133.462 109.264 133.383 109.2 133.279C109.136 133.175 109.111 133.051 109.129 132.93C109.679 129.87 110.029 124.68 108.659 123.77C108.289 123.52 107.659 123.64 106.949 124.14C102.099 127.3 99.9491 143.23 100.679 150.66C101.359 157.9 102.949 174.88 98.1591 181.16C96.8191 182.87 92.7791 189.35 86.1191 200.43Z" fill="#231F20"/>
<path d="M180.649 141.05C178.539 139.54 176.119 144.68 177.649 152.24C179.179 159.8 188.229 175.82 195.179 182.47C197.009 184.21 199.759 190.05 202.839 197.71H236.049C227.869 182.25 220.879 169.1 220.279 168.26C218.759 166.14 217.169 152.72 217.589 144.83C217.932 137.613 217.401 130.381 216.009 123.29C214.939 118.6 213.249 117.06 210.899 117.06C208.549 117.06 209.719 126.37 209.719 126.37C208.659 120.82 205.029 114.42 201.829 113.78C198.629 113.14 202.539 124.93 202.539 124.93C201.259 121.52 194.279 110.61 191.179 112.34C190.179 112.9 187.649 113.64 191.699 121.11C195.749 128.58 195.699 132.64 195.699 132.64C187.269 118.24 180.699 118.73 178.619 121.75C176.539 124.77 181.939 126.59 186.179 133C190.419 139.41 187.989 155.61 187.989 155.61C183.369 152.54 182.769 142.56 180.649 141.05ZM210.169 128.62V128.51V128.62ZM210.099 128.26L209.999 127.72L210.099 128.26ZM209.939 127.4C209.939 127.24 209.879 127.07 209.839 126.88L209.939 127.4Z" fill="white"/>
<path d="M236.029 198.21H202.819C202.719 198.209 202.622 198.178 202.54 198.121C202.458 198.064 202.395 197.984 202.359 197.89C198.959 189.43 196.419 184.36 194.819 182.83C187.989 176.3 178.739 160.34 177.139 152.33C175.919 146.24 177.139 141.74 178.929 140.59C179.225 140.388 179.578 140.283 179.937 140.292C180.296 140.301 180.643 140.423 180.929 140.64C181.929 141.35 182.519 143.34 183.289 145.86C184.229 148.93 185.379 152.69 187.509 154.63C187.929 151.22 189.189 138.63 185.659 133.23C184.198 131.099 182.493 129.146 180.579 127.41C178.269 125.18 176.579 123.57 178.109 121.41C178.567 120.761 179.185 120.242 179.904 119.904C180.623 119.566 181.417 119.42 182.209 119.48C184.459 119.57 188.969 121.14 194.769 130.26C193.999 127.11 192.798 124.082 191.199 121.26C189.279 117.73 188.589 115.26 189.059 113.68C189.191 113.285 189.407 112.922 189.692 112.616C189.977 112.311 190.323 112.07 190.709 111.91L190.879 111.81C191.186 111.65 191.526 111.561 191.872 111.55C192.218 111.54 192.563 111.608 192.879 111.75C195.359 112.66 198.579 116.9 200.749 120.43C200.119 117.72 199.689 114.69 200.609 113.65C200.772 113.47 200.981 113.338 201.214 113.268C201.446 113.197 201.693 113.191 201.929 113.25C204.569 113.78 207.279 117.63 208.929 121.87C208.929 119.87 209.119 117.87 209.869 117C209.992 116.854 210.144 116.735 210.317 116.652C210.489 116.569 210.678 116.524 210.869 116.52C213.699 116.52 215.419 118.52 216.459 123.14C217.865 130.276 218.402 137.556 218.059 144.82C217.629 152.82 219.299 166.03 220.649 167.93C221.189 168.68 226.359 178.33 236.459 197.43C236.501 197.505 236.523 197.59 236.523 197.675C236.523 197.761 236.501 197.846 236.459 197.92C236.419 198.002 236.358 198.072 236.283 198.123C236.207 198.174 236.12 198.204 236.029 198.21ZM203.159 197.21H235.159C223.109 174.42 220.159 169.03 219.809 168.55C218.189 166.28 216.599 152.74 217.029 144.8C217.37 137.63 216.843 130.444 215.459 123.4C214.289 118.25 212.459 117.56 210.839 117.56C210.784 117.561 210.729 117.575 210.68 117.601C210.632 117.627 210.59 117.665 210.559 117.71C209.619 118.77 209.809 123.54 210.159 126.3V126.37C210.179 126.439 210.179 126.512 210.159 126.58C210.201 126.636 210.229 126.701 210.239 126.77L210.339 127.29C210.349 127.343 210.349 127.398 210.339 127.45C210.369 127.499 210.39 127.554 210.399 127.61L210.509 128.14C210.482 128.222 210.482 128.309 210.509 128.39H210.439L210.509 128.48C210.514 128.507 210.514 128.534 210.509 128.56C210.499 128.666 210.456 128.765 210.385 128.844C210.315 128.923 210.222 128.978 210.119 129C210.021 129.019 209.92 129.009 209.828 128.972C209.736 128.934 209.656 128.871 209.599 128.79C209.594 128.761 209.594 128.73 209.599 128.7C209.593 128.674 209.593 128.647 209.599 128.62V128.53C209.594 128.487 209.594 128.444 209.599 128.4C209.576 128.36 209.559 128.316 209.549 128.27L209.539 127.93V127.85C209.534 127.811 209.534 127.77 209.539 127.73C209.498 127.674 209.471 127.609 209.459 127.54L209.359 127.02C209.349 126.957 209.349 126.893 209.359 126.83C209.324 126.776 209.3 126.715 209.289 126.65C209.283 126.634 209.283 126.617 209.289 126.6C208.189 120.9 204.549 114.97 201.789 114.42C201.539 114.37 201.459 114.42 201.419 114.51C200.509 115.51 201.829 121.18 203.049 124.87C203.08 124.992 203.064 125.12 203.005 125.23C202.946 125.341 202.848 125.425 202.73 125.466C202.612 125.508 202.483 125.503 202.368 125.454C202.253 125.405 202.16 125.314 202.109 125.2C200.989 122.2 195.809 114.06 192.589 112.88C192.414 112.796 192.223 112.751 192.029 112.751C191.835 112.751 191.643 112.796 191.469 112.88L191.269 112.98C191.002 113.081 190.761 113.238 190.562 113.442C190.364 113.646 190.212 113.891 190.119 114.16C189.729 115.44 190.419 117.73 192.179 120.97C196.249 128.47 196.179 132.58 196.179 132.75C196.174 132.859 196.134 132.963 196.066 133.048C195.998 133.132 195.904 133.193 195.799 133.22C195.695 133.248 195.584 133.24 195.485 133.199C195.386 133.157 195.303 133.084 195.249 132.99C189.079 122.45 184.449 120.73 182.249 120.64C181.625 120.584 180.997 120.693 180.428 120.956C179.859 121.22 179.37 121.628 179.009 122.14C178.009 123.53 179.009 124.59 181.359 126.84C183.323 128.631 185.071 130.645 186.569 132.84C190.859 139.34 188.569 155.13 188.459 155.84C188.448 155.924 188.415 156.002 188.365 156.069C188.314 156.136 188.246 156.188 188.169 156.22C188.095 156.26 188.013 156.28 187.929 156.28C187.845 156.28 187.763 156.26 187.689 156.22C184.839 154.32 183.499 149.92 182.419 146.39C181.759 144.24 181.139 142.21 180.419 141.7C180.293 141.599 180.136 141.544 179.974 141.544C179.812 141.544 179.655 141.599 179.529 141.7C178.289 142.51 176.989 146.47 178.179 152.41C179.719 160.11 188.979 176.08 195.569 182.41C197.219 183.74 199.719 188.68 203.159 197.21Z" fill="#231F20"/>
<path d="M126.619 197.71C125.809 197.71 89.1887 185.27 89.1887 185.27C89.1887 185.27 72.5388 215.34 67.4688 224.74L115.649 232.47L126.619 197.71Z" fill="#1A2843"/>
<path d="M231.799 183.12L193.249 190.31L203.719 227.64L252.649 223.93L231.799 183.12Z" fill="#1A2843"/>
<path d="M228.229 1.39042H82.5989C77.4847 1.39042 73.3389 5.53626 73.3389 10.6504V88.2604C73.3389 93.3746 77.4847 97.5204 82.5989 97.5204H228.229C233.343 97.5204 237.489 93.3746 237.489 88.2604V10.6504C237.489 5.53626 233.343 1.39042 228.229 1.39042Z" fill="white"/>
<path d="M228.219 98.0204H82.5989C80.0112 98.0178 77.5302 96.9886 75.7004 95.1589C73.8706 93.3291 72.8415 90.8481 72.8389 88.2604V10.6504C72.8521 8.06966 73.8859 5.59896 75.7145 3.77781C77.5431 1.95666 80.0181 0.933028 82.5989 0.93042H228.219C230.807 0.933067 233.288 1.9622 235.117 3.79198C236.947 5.62176 237.976 8.10272 237.979 10.6904V88.3004C237.966 90.8812 236.932 93.3519 235.103 95.173C233.275 96.9942 230.8 98.0178 228.219 98.0204ZM82.5989 1.93042C80.2764 1.93307 78.0498 2.85684 76.4075 4.49909C74.7653 6.14133 73.8415 8.36793 73.8389 10.6904V88.3004C73.8415 90.6229 74.7653 92.8495 76.4075 94.4918C78.0498 96.134 80.2764 97.0578 82.5989 97.0604H228.219C230.541 97.0578 232.768 96.134 234.41 94.4918C236.052 92.8495 236.976 90.6229 236.979 88.3004V10.6504C236.966 8.33488 236.037 6.11852 234.396 4.48491C232.755 2.8513 230.534 1.93302 228.219 1.93042H82.5989Z" fill="#231F20"/>
<path d="M230.679 9.55042H81.499V89.8104H230.679V9.55042Z" fill="white"/>
<path d="M230.679 90.3104H81.5391C81.4065 90.3104 81.2793 90.2577 81.1855 90.164C81.0917 90.0702 81.0391 89.943 81.0391 89.8104V9.55042C81.0391 9.41781 81.0917 9.29063 81.1855 9.19687C81.2793 9.1031 81.4065 9.05042 81.5391 9.05042H230.679C230.812 9.05042 230.939 9.1031 231.033 9.19687C231.126 9.29063 231.179 9.41781 231.179 9.55042V89.8104C231.179 89.943 231.126 90.0702 231.033 90.164C230.939 90.2577 230.812 90.3104 230.679 90.3104ZM81.9991 89.3104H230.179V10.0504H81.9991V89.3104Z" fill="#231F20"/>
<path d="M230.679 19.7304H81.5391C81.4065 19.7304 81.2793 19.6777 81.1855 19.584C81.0917 19.4902 81.0391 19.363 81.0391 19.2304C81.0391 19.0978 81.0917 18.9706 81.1855 18.8769C81.2793 18.7831 81.4065 18.7304 81.5391 18.7304H230.679C230.812 18.7304 230.939 18.7831 231.033 18.8769C231.126 18.9706 231.179 19.0978 231.179 19.2304C231.179 19.363 231.126 19.4902 231.033 19.584C230.939 19.6777 230.812 19.7304 230.679 19.7304Z" fill="#231F20"/>
<path d="M87.1891 15.8804C88.1003 15.8804 88.8391 15.1417 88.8391 14.2304C88.8391 13.3191 88.1003 12.5804 87.1891 12.5804C86.2778 12.5804 85.5391 13.3191 85.5391 14.2304C85.5391 15.1417 86.2778 15.8804 87.1891 15.8804Z" fill="#231F20"/>
<path d="M87.1891 16.3804C86.7638 16.3804 86.3481 16.2543 85.9946 16.0181C85.641 15.7818 85.3654 15.446 85.2027 15.0532C85.04 14.6603 84.9974 14.228 85.0804 13.811C85.1633 13.3939 85.3681 13.0108 85.6688 12.7101C85.9695 12.4095 86.3526 12.2047 86.7696 12.1217C87.1867 12.0388 87.619 12.0814 88.0118 12.2441C88.4047 12.4068 88.7405 12.6824 88.9767 13.0359C89.213 13.3895 89.3391 13.8052 89.3391 14.2304C89.3404 14.5131 89.2857 14.7933 89.1781 15.0548C89.0705 15.3162 88.9122 15.5537 88.7123 15.7536C88.5124 15.9536 88.2748 16.1119 88.0134 16.2195C87.7519 16.327 87.4718 16.3817 87.1891 16.3804ZM87.1891 13.0904C86.9612 13.0904 86.7385 13.1581 86.5491 13.2849C86.3598 13.4118 86.2124 13.592 86.1257 13.8027C86.0389 14.0134 86.0168 14.2451 86.062 14.4685C86.1071 14.6918 86.2177 14.8967 86.3795 15.0571C86.5413 15.2176 86.7472 15.3263 86.9709 15.3695C87.1946 15.4128 87.4262 15.3886 87.6361 15.3C87.8461 15.2114 88.025 15.0625 88.1501 14.872C88.2753 14.6816 88.341 14.4583 88.3391 14.2304C88.3391 14.0799 88.3093 13.9308 88.2513 13.7918C88.1934 13.6529 88.1086 13.5268 88.0016 13.4208C87.8947 13.3148 87.7679 13.231 87.6284 13.1743C87.4889 13.1176 87.3396 13.0891 87.1891 13.0904Z" fill="#231F20"/>
<path d="M94.6788 15.8804C95.5901 15.8804 96.3288 15.1417 96.3288 14.2304C96.3288 13.3191 95.5901 12.5804 94.6788 12.5804C93.7675 12.5804 93.0288 13.3191 93.0288 14.2304C93.0288 15.1417 93.7675 15.8804 94.6788 15.8804Z" fill="#231F20"/>
<path d="M94.679 16.3804C94.2534 16.3824 93.8367 16.258 93.4819 16.023C93.127 15.7879 92.8499 15.4528 92.6856 15.0601C92.5213 14.6675 92.4773 14.2349 92.5591 13.8171C92.641 13.3994 92.845 13.0154 93.1452 12.7137C93.4455 12.412 93.8286 12.2063 94.2459 12.1225C94.6632 12.0387 95.096 12.0807 95.4895 12.2431C95.8829 12.4056 96.2193 12.6811 96.456 13.0349C96.6927 13.3887 96.819 13.8048 96.819 14.2304C96.8191 14.7989 96.5939 15.3443 96.1929 15.7472C95.7918 16.1501 95.2475 16.3778 94.679 16.3804ZM94.679 13.0904C94.4508 13.0884 94.227 13.1545 94.0364 13.2801C93.8458 13.4057 93.6968 13.5852 93.6086 13.7957C93.5203 14.0062 93.4967 14.2383 93.5407 14.4623C93.5848 14.6863 93.6945 14.8921 93.8559 15.0536C94.0173 15.215 94.2232 15.3247 94.4472 15.3688C94.6712 15.4128 94.9032 15.3892 95.1138 15.3009C95.3243 15.2126 95.5038 15.0637 95.6294 14.8731C95.755 14.6824 95.821 14.4587 95.819 14.2304C95.8164 13.9289 95.6955 13.6404 95.4823 13.4272C95.269 13.214 94.9806 13.093 94.679 13.0904Z" fill="#231F20"/>
<path d="M102.159 15.8804C103.07 15.8804 103.809 15.1417 103.809 14.2304C103.809 13.3191 103.07 12.5804 102.159 12.5804C101.248 12.5804 100.509 13.3191 100.509 14.2304C100.509 15.1417 101.248 15.8804 102.159 15.8804Z" fill="#231F20"/>
<path d="M102.159 16.3804C101.734 16.3804 101.318 16.2543 100.964 16.0181C100.611 15.7818 100.335 15.446 100.172 15.0532C100.01 14.6603 99.9671 14.228 100.05 13.811C100.133 13.3939 100.338 13.0108 100.639 12.7101C100.939 12.4095 101.322 12.2047 101.739 12.1217C102.156 12.0388 102.589 12.0814 102.982 12.2441C103.374 12.4068 103.71 12.6824 103.946 13.0359C104.183 13.3895 104.309 13.8052 104.309 14.2304C104.309 14.8006 104.082 15.3475 103.679 15.7507C103.276 16.1539 102.729 16.3804 102.159 16.3804ZM102.159 13.0904C101.931 13.0904 101.708 13.1581 101.519 13.2849C101.33 13.4118 101.182 13.592 101.095 13.8027C101.009 14.0134 100.986 14.2451 101.032 14.4685C101.077 14.6918 101.187 14.8967 101.349 15.0571C101.511 15.2176 101.717 15.3263 101.941 15.3695C102.164 15.4128 102.396 15.3886 102.606 15.3C102.816 15.2114 102.995 15.0625 103.12 14.872C103.245 14.6816 103.311 14.4583 103.309 14.2304C103.306 13.9272 103.184 13.6372 102.968 13.4237C102.753 13.2102 102.462 13.0904 102.159 13.0904Z" fill="#231F20"/>
<path d="M93.0288 90.3104C92.8962 90.3104 92.769 90.2577 92.6752 90.164C92.5815 90.0702 92.5288 89.943 92.5288 89.8104V19.2304C92.5288 19.0978 92.5815 18.9706 92.6752 18.8769C92.769 18.7831 92.8962 18.7304 93.0288 18.7304C93.1614 18.7304 93.2886 18.7831 93.3824 18.8769C93.4761 18.9706 93.5288 19.0978 93.5288 19.2304V89.8104C93.5288 89.943 93.4761 90.0702 93.3824 90.164C93.2886 90.2577 93.1614 90.3104 93.0288 90.3104Z" fill="#231F20"/>
<path d="M120.429 24.9304H99.4287C99.2961 24.9304 99.1689 24.8777 99.0752 24.784C98.9814 24.6902 98.9287 24.563 98.9287 24.4304C98.9287 24.2978 98.9814 24.1706 99.0752 24.0769C99.1689 23.9831 99.2961 23.9304 99.4287 23.9304H120.429C120.561 23.9304 120.689 23.9831 120.782 24.0769C120.876 24.1706 120.929 24.2978 120.929 24.4304C120.929 24.563 120.876 24.6902 120.782 24.784C120.689 24.8777 120.561 24.9304 120.429 24.9304Z" fill="#263859"/>
<path d="M132.479 24.9304H125.629C125.496 24.9304 125.369 24.8777 125.275 24.784C125.182 24.6902 125.129 24.563 125.129 24.4304C125.129 24.2978 125.182 24.1706 125.275 24.0769C125.369 23.9831 125.496 23.9304 125.629 23.9304H132.479C132.612 23.9304 132.739 23.9831 132.832 24.0769C132.926 24.1706 132.979 24.2978 132.979 24.4304C132.979 24.563 132.926 24.6902 132.832 24.784C132.739 24.8777 132.612 24.9304 132.479 24.9304Z" fill="#231F20"/>
<path d="M151.079 24.9304H136.589C136.456 24.9304 136.329 24.8777 136.235 24.784C136.142 24.6902 136.089 24.563 136.089 24.4304C136.089 24.2978 136.142 24.1706 136.235 24.0769C136.329 23.9831 136.456 23.9304 136.589 23.9304H151.079C151.211 23.9304 151.339 23.9831 151.432 24.0769C151.526 24.1706 151.579 24.2978 151.579 24.4304C151.579 24.4961 151.566 24.5611 151.541 24.6218C151.516 24.6824 151.479 24.7375 151.432 24.784C151.386 24.8304 151.331 24.8672 151.27 24.8924C151.21 24.9175 151.145 24.9304 151.079 24.9304Z" fill="#231F20"/>
<path d="M113.729 31.2504H99.3892C99.2566 31.2504 99.1294 31.1977 99.0356 31.104C98.9418 31.0102 98.8892 30.883 98.8892 30.7504C98.8892 30.6178 98.9418 30.4906 99.0356 30.3969C99.1294 30.3031 99.2566 30.2504 99.3892 30.2504H113.729C113.862 30.2504 113.989 30.3031 114.083 30.3969C114.176 30.4906 114.229 30.6178 114.229 30.7504C114.227 30.8822 114.173 31.0079 114.08 31.1011C113.987 31.1944 113.861 31.2479 113.729 31.2504Z" fill="#263859"/>
<path d="M177.269 31.2504H118.089C117.957 31.2479 117.831 31.1944 117.738 31.1011C117.645 31.0079 117.591 30.8822 117.589 30.7504C117.589 30.6178 117.642 30.4906 117.735 30.3969C117.829 30.3031 117.956 30.2504 118.089 30.2504H177.269C177.401 30.2504 177.529 30.3031 177.622 30.3969C177.716 30.4906 177.769 30.6178 177.769 30.7504C177.769 30.8161 177.756 30.8811 177.731 30.9418C177.706 31.0024 177.669 31.0575 177.622 31.104C177.576 31.1504 177.521 31.1872 177.46 31.2124C177.4 31.2375 177.335 31.2504 177.269 31.2504Z" fill="#231F20"/>
<path d="M210.679 31.2504H181.789C181.656 31.2504 181.529 31.1977 181.436 31.104C181.342 31.0102 181.289 30.883 181.289 30.7504C181.289 30.6178 181.342 30.4906 181.436 30.3969C181.529 30.3031 181.656 30.2504 181.789 30.2504H210.679C210.812 30.2504 210.939 30.3031 211.033 30.3969C211.126 30.4906 211.179 30.6178 211.179 30.7504C211.177 30.8822 211.123 31.0079 211.03 31.1011C210.937 31.1944 210.811 31.2479 210.679 31.2504Z" fill="#263859"/>
<path d="M151.079 37.2704H99.3892C99.2566 37.2704 99.1294 37.2177 99.0356 37.124C98.9418 37.0302 98.8892 36.903 98.8892 36.7704C98.8892 36.6378 98.9418 36.5106 99.0356 36.4169C99.1294 36.3231 99.2566 36.2704 99.3892 36.2704H151.079C151.212 36.2704 151.339 36.3231 151.433 36.4169C151.526 36.5106 151.579 36.6378 151.579 36.7704C151.579 36.903 151.526 37.0302 151.433 37.124C151.339 37.2177 151.212 37.2704 151.079 37.2704Z" fill="#263859"/>
<path d="M173.369 37.2704H155.599C155.467 37.2704 155.339 37.2177 155.246 37.124C155.152 37.0302 155.099 36.903 155.099 36.7704C155.102 36.6386 155.155 36.5129 155.248 36.4197C155.342 36.3265 155.467 36.273 155.599 36.2704H173.369C173.502 36.2704 173.629 36.3231 173.723 36.4169C173.816 36.5106 173.869 36.6378 173.869 36.7704C173.869 36.903 173.816 37.0302 173.723 37.124C173.629 37.2177 173.502 37.2704 173.369 37.2704Z" fill="#231F20"/>
<path d="M106.539 48.1804H99.3691C99.2365 48.1804 99.1093 48.1277 99.0156 48.034C98.9218 47.9402 98.8691 47.813 98.8691 47.6804C98.8691 47.5478 98.9218 47.4206 99.0156 47.3269C99.1093 47.2331 99.2365 47.1804 99.3691 47.1804H106.539C106.671 47.183 106.797 47.2365 106.89 47.3297C106.983 47.4229 107.037 47.5486 107.039 47.6804C107.039 47.813 106.986 47.9402 106.893 48.034C106.799 48.1277 106.672 48.1804 106.539 48.1804Z" fill="#263859"/>
<path d="M129.049 48.1804H110.919C110.786 48.1804 110.659 48.1277 110.565 48.034C110.472 47.9402 110.419 47.813 110.419 47.6804C110.422 47.5486 110.475 47.4229 110.568 47.3297C110.661 47.2365 110.787 47.183 110.919 47.1804H129.049C129.182 47.1804 129.309 47.2331 129.402 47.3269C129.496 47.4206 129.549 47.5478 129.549 47.6804C129.549 47.813 129.496 47.9402 129.402 48.034C129.309 48.1277 129.182 48.1804 129.049 48.1804Z" fill="#231F20"/>
<path d="M114.659 53.8004H99.3892C99.2566 53.8004 99.1294 53.7477 99.0356 53.654C98.9418 53.5602 98.8892 53.433 98.8892 53.3004C98.8892 53.1678 98.9418 53.0406 99.0356 52.9469C99.1294 52.8531 99.2566 52.8004 99.3892 52.8004H114.659C114.792 52.8004 114.919 52.8531 115.013 52.9469C115.106 53.0406 115.159 53.1678 115.159 53.3004C115.159 53.433 115.106 53.5602 115.013 53.654C114.919 53.7477 114.792 53.8004 114.659 53.8004Z" fill="#263859"/>
<path d="M147.679 53.8004H118.089C117.957 53.7979 117.831 53.7444 117.738 53.6511C117.645 53.5579 117.591 53.4322 117.589 53.3004C117.589 53.1678 117.642 53.0406 117.735 52.9469C117.829 52.8531 117.956 52.8004 118.089 52.8004H147.679C147.811 52.8004 147.939 52.8531 148.032 52.9469C148.126 53.0406 148.179 53.1678 148.179 53.3004C148.179 53.433 148.126 53.5602 148.032 53.654C147.939 53.7477 147.811 53.8004 147.679 53.8004Z" fill="#231F20"/>
<path d="M167.859 53.8004H151.859C151.727 53.7979 151.601 53.7444 151.508 53.6511C151.415 53.5579 151.361 53.4322 151.359 53.3004C151.359 53.1678 151.412 53.0406 151.505 52.9469C151.599 52.8531 151.726 52.8004 151.859 52.8004H167.859C167.991 52.8004 168.119 52.8531 168.212 52.9469C168.306 53.0406 168.359 53.1678 168.359 53.3004C168.359 53.433 168.306 53.5602 168.212 53.654C168.119 53.7477 167.991 53.8004 167.859 53.8004Z" fill="#263859"/>
<path d="M121.109 59.8204H99.3892C99.2566 59.8204 99.1294 59.7677 99.0356 59.674C98.9418 59.5802 98.8892 59.453 98.8892 59.3204C98.8892 59.1878 98.9418 59.0606 99.0356 58.9669C99.1294 58.8731 99.2566 58.8204 99.3892 58.8204H121.109C121.241 58.823 121.367 58.8765 121.46 58.9697C121.553 59.0629 121.607 59.1886 121.609 59.3204C121.609 59.453 121.556 59.5802 121.463 59.674C121.369 59.7677 121.242 59.8204 121.109 59.8204Z" fill="#263859"/>
<path d="M161.839 59.8204H125.629C125.496 59.8204 125.369 59.7677 125.275 59.674C125.182 59.5802 125.129 59.453 125.129 59.3204C125.129 59.1878 125.182 59.0606 125.275 58.9669C125.369 58.8731 125.496 58.8204 125.629 58.8204H161.839C161.971 58.823 162.096 58.8765 162.19 58.9697C162.283 59.0629 162.336 59.1886 162.339 59.3204C162.339 59.453 162.286 59.5802 162.192 59.674C162.099 59.7677 161.972 59.8204 161.839 59.8204Z" fill="#231F20"/>
<path d="M196.229 59.8204H167.029C166.896 59.8204 166.769 59.7677 166.675 59.674C166.581 59.5802 166.529 59.453 166.529 59.3204C166.531 59.1886 166.585 59.0629 166.678 58.9697C166.771 58.8765 166.897 58.823 167.029 58.8204H196.229C196.361 58.8204 196.489 58.8731 196.582 58.9669C196.676 59.0606 196.729 59.1878 196.729 59.3204C196.729 59.453 196.676 59.5802 196.582 59.674C196.489 59.7677 196.361 59.8204 196.229 59.8204Z" fill="#263859"/>
<path d="M121.109 70.5804H99.3892C99.2566 70.5804 99.1294 70.5277 99.0356 70.434C98.9418 70.3402 98.8892 70.213 98.8892 70.0804C98.8892 69.9478 98.9418 69.8206 99.0356 69.7269C99.1294 69.6331 99.2566 69.5804 99.3892 69.5804H121.109C121.242 69.5804 121.369 69.6331 121.463 69.7269C121.556 69.8206 121.609 69.9478 121.609 70.0804C121.607 70.2122 121.553 70.3379 121.46 70.4311C121.367 70.5244 121.241 70.5779 121.109 70.5804Z" fill="#263859"/>
<path d="M132.889 70.5804H125.239C125.106 70.5804 124.979 70.5277 124.885 70.434C124.791 70.3402 124.739 70.213 124.739 70.0804C124.739 69.9478 124.791 69.8206 124.885 69.7269C124.979 69.6331 125.106 69.5804 125.239 69.5804H132.889C133.021 69.5804 133.149 69.6331 133.242 69.7269C133.336 69.8206 133.389 69.9478 133.389 70.0804C133.386 70.2122 133.333 70.3379 133.239 70.4311C133.146 70.5244 133.021 70.5779 132.889 70.5804Z" fill="#231F20"/>
<path d="M151.859 70.5804H136.589C136.456 70.5804 136.329 70.5277 136.235 70.434C136.142 70.3402 136.089 70.213 136.089 70.0804C136.089 69.9478 136.142 69.8206 136.235 69.7269C136.329 69.6331 136.456 69.5804 136.589 69.5804H151.859C151.991 69.5804 152.119 69.6331 152.212 69.7269C152.306 69.8206 152.359 69.9478 152.359 70.0804C152.359 70.213 152.306 70.3402 152.212 70.434C152.119 70.5277 151.991 70.5804 151.859 70.5804Z" fill="#231F20"/>
<path d="M113.729 76.1904H99.3892C99.2566 76.1904 99.1294 76.1377 99.0356 76.044C98.9418 75.9502 98.8892 75.823 98.8892 75.6904C98.8892 75.5578 98.9418 75.4306 99.0356 75.3369C99.1294 75.2431 99.2566 75.1904 99.3892 75.1904H113.729C113.862 75.1904 113.989 75.2431 114.083 75.3369C114.176 75.4306 114.229 75.5578 114.229 75.6904C114.227 75.8222 114.173 75.9479 114.08 76.0411C113.987 76.1344 113.861 76.1879 113.729 76.1904Z" fill="#263859"/>
<path d="M177.269 76.1904H117.469C117.336 76.1904 117.209 76.1377 117.115 76.044C117.021 75.9502 116.969 75.823 116.969 75.6904C116.969 75.5578 117.021 75.4306 117.115 75.3369C117.209 75.2431 117.336 75.1904 117.469 75.1904H177.269C177.401 75.1904 177.529 75.2431 177.622 75.3369C177.716 75.4306 177.769 75.5578 177.769 75.6904C177.769 75.7561 177.756 75.8211 177.731 75.8818C177.706 75.9424 177.669 75.9975 177.622 76.044C177.576 76.0904 177.521 76.1272 177.46 76.1524C177.399 76.1775 177.334 76.1904 177.269 76.1904Z" fill="#231F20"/>
<path d="M212.539 76.1904H181.789C181.656 76.1904 181.529 76.1377 181.436 76.044C181.342 75.9502 181.289 75.823 181.289 75.6904C181.289 75.5578 181.342 75.4306 181.436 75.3369C181.529 75.2431 181.656 75.1904 181.789 75.1904H212.539C212.672 75.1904 212.799 75.2431 212.893 75.3369C212.986 75.4306 213.039 75.5578 213.039 75.6904C213.037 75.8222 212.983 75.9479 212.89 76.0411C212.797 76.1344 212.671 76.1879 212.539 76.1904Z" fill="#231F20"/>
<path d="M151.079 82.4704H98.249C98.1164 82.4704 97.9892 82.4178 97.8955 82.324C97.8017 82.2302 97.749 82.103 97.749 81.9704C97.749 81.8378 97.8017 81.7106 97.8955 81.6169C97.9892 81.5231 98.1164 81.4704 98.249 81.4704H151.079C151.212 81.4704 151.339 81.5231 151.433 81.6169C151.526 81.7106 151.579 81.8378 151.579 81.9704C151.579 82.0361 151.566 82.1011 151.541 82.1618C151.516 82.2224 151.479 82.2776 151.433 82.324C151.386 82.3704 151.331 82.4072 151.27 82.4324C151.21 82.4575 151.145 82.4704 151.079 82.4704Z" fill="#263859"/>
<path d="M171.809 82.4704H155.599C155.467 82.4704 155.339 82.4178 155.246 82.324C155.152 82.2302 155.099 82.103 155.099 81.9704C155.102 81.8386 155.155 81.7129 155.248 81.6197C155.342 81.5265 155.467 81.473 155.599 81.4704H171.809C171.942 81.4704 172.069 81.5231 172.163 81.6169C172.256 81.7106 172.309 81.8378 172.309 81.9704C172.309 82.103 172.256 82.2302 172.163 82.324C172.069 82.4178 171.942 82.4704 171.809 82.4704Z" fill="#231F20"/>
<path d="M86.7889 26.4404C87.6947 26.4404 88.4289 25.7062 88.4289 24.8004C88.4289 23.8947 87.6947 23.1604 86.7889 23.1604C85.8832 23.1604 85.1489 23.8947 85.1489 24.8004C85.1489 25.7062 85.8832 26.4404 86.7889 26.4404Z" fill="#263859"/>
<path d="M86.7889 32.3904C87.6947 32.3904 88.4289 31.6562 88.4289 30.7504C88.4289 29.8447 87.6947 29.1104 86.7889 29.1104C85.8832 29.1104 85.1489 29.8447 85.1489 30.7504C85.1489 31.6562 85.8832 32.3904 86.7889 32.3904Z" fill="#263859"/>
<path d="M86.7889 38.3404C87.6947 38.3404 88.4289 37.6062 88.4289 36.7004C88.4289 35.7947 87.6947 35.0604 86.7889 35.0604C85.8832 35.0604 85.1489 35.7947 85.1489 36.7004C85.1489 37.6062 85.8832 38.3404 86.7889 38.3404Z" fill="#263859"/>
<path d="M86.7889 49.4304C87.6947 49.4304 88.4289 48.6962 88.4289 47.7904C88.4289 46.8847 87.6947 46.1504 86.7889 46.1504C85.8832 46.1504 85.1489 46.8847 85.1489 47.7904C85.1489 48.6962 85.8832 49.4304 86.7889 49.4304Z" fill="#263859"/>
<path d="M86.7889 55.3804C87.6947 55.3804 88.4289 54.6462 88.4289 53.7404C88.4289 52.8347 87.6947 52.1004 86.7889 52.1004C85.8832 52.1004 85.1489 52.8347 85.1489 53.7404C85.1489 54.6462 85.8832 55.3804 86.7889 55.3804Z" fill="#263859"/>
<path d="M86.7889 61.3304C87.6947 61.3304 88.4289 60.5962 88.4289 59.6904C88.4289 58.7847 87.6947 58.0504 86.7889 58.0504C85.8832 58.0504 85.1489 58.7847 85.1489 59.6904C85.1489 60.5962 85.8832 61.3304 86.7889 61.3304Z" fill="#263859"/>
<path d="M86.7889 71.7204C87.6947 71.7204 88.4289 70.9862 88.4289 70.0804C88.4289 69.1747 87.6947 68.4404 86.7889 68.4404C85.8832 68.4404 85.1489 69.1747 85.1489 70.0804C85.1489 70.9862 85.8832 71.7204 86.7889 71.7204Z" fill="#263859"/>
<path d="M86.7889 77.6704C87.6947 77.6704 88.4289 76.9362 88.4289 76.0304C88.4289 75.1247 87.6947 74.3904 86.7889 74.3904C85.8832 74.3904 85.1489 75.1247 85.1489 76.0304C85.1489 76.9362 85.8832 77.6704 86.7889 77.6704Z" fill="#263859"/>
<path d="M86.7889 83.6104C87.6947 83.6104 88.4289 82.8762 88.4289 81.9704C88.4289 81.0647 87.6947 80.3304 86.7889 80.3304C85.8832 80.3304 85.1489 81.0647 85.1489 81.9704C85.1489 82.8762 85.8832 83.6104 86.7889 83.6104Z" fill="#263859"/>
<path d="M57.769 13.9304H17.209V50.1404H57.769V13.9304Z" fill="white"/>
<path d="M57.769 50.6404H17.209C17.0764 50.6404 16.9492 50.5877 16.8554 50.494C16.7617 50.4002 16.709 50.273 16.709 50.1404V13.9304C16.709 13.7978 16.7617 13.6706 16.8554 13.5769C16.9492 13.4831 17.0764 13.4304 17.209 13.4304H57.769C57.9008 13.433 58.0265 13.4865 58.1197 13.5797C58.2129 13.6729 58.2664 13.7986 58.269 13.9304V50.1404C58.269 50.273 58.2163 50.4002 58.1225 50.494C58.0288 50.5877 57.9016 50.6404 57.769 50.6404ZM17.709 49.6404H57.269V14.4304H17.709V49.6404Z" fill="#D1D3D4"/>
<path d="M30.3088 39.4004C30.1866 39.3989 30.0692 39.3526 29.9788 39.2704L22.8888 33.0204C22.7875 32.9271 22.7265 32.798 22.7188 32.6604C22.7175 32.5269 22.7676 32.398 22.8588 32.3004L29.9488 24.8304C29.9953 24.7836 30.0506 24.7464 30.1115 24.721C30.1724 24.6956 30.2378 24.6825 30.3038 24.6825C30.3698 24.6825 30.4351 24.6956 30.4961 24.721C30.557 24.7464 30.6123 24.7836 30.6588 24.8304C30.7053 24.876 30.7423 24.9305 30.7676 24.9906C30.7928 25.0507 30.8058 25.1152 30.8058 25.1804C30.8058 25.2456 30.7928 25.3101 30.7676 25.3702C30.7423 25.4303 30.7053 25.4848 30.6588 25.5304L23.9388 32.6104L30.6388 38.5204C30.738 38.6089 30.7988 38.7326 30.8081 38.8653C30.8174 38.9979 30.7746 39.1289 30.6888 39.2304C30.6406 39.2834 30.5819 39.3259 30.5165 39.3551C30.4511 39.3844 30.3804 39.3998 30.3088 39.4004Z" fill="#D1D3D4"/>
<path d="M43.269 39.4004C43.1655 39.4036 43.0636 39.3745 42.9773 39.3173C42.891 39.2601 42.8246 39.1774 42.7873 39.0809C42.75 38.9843 42.7436 38.8785 42.769 38.7781C42.7944 38.6777 42.8503 38.5877 42.929 38.5204L49.629 32.6104L42.899 25.5204C42.8525 25.4748 42.8155 25.4203 42.7902 25.3602C42.765 25.3001 42.752 25.2356 42.752 25.1704C42.752 25.1052 42.765 25.0407 42.7902 24.9806C42.8155 24.9205 42.8525 24.866 42.899 24.8204C42.9942 24.7282 43.1215 24.6766 43.254 24.6766C43.3865 24.6766 43.5139 24.7282 43.609 24.8204L50.699 32.2904C50.7447 32.3379 50.7799 32.3946 50.8023 32.4566C50.8247 32.5186 50.8338 32.5847 50.829 32.6504C50.8293 32.7183 50.8152 32.7855 50.7877 32.8476C50.7601 32.9096 50.7196 32.9651 50.669 33.0104L43.579 39.2604C43.4952 39.3419 43.3855 39.3914 43.269 39.4004Z" fill="#D1D3D4"/>
<path d="M32.179 41.3504C32.0984 41.3509 32.0191 41.3302 31.949 41.2904C31.8906 41.2609 31.8387 41.2199 31.7964 41.17C31.7541 41.1201 31.7222 41.0622 31.7026 40.9997C31.683 40.9373 31.6762 40.8715 31.6824 40.8064C31.6887 40.7412 31.7079 40.678 31.739 40.6204L40.539 23.7004C40.5671 23.6379 40.6077 23.5818 40.6584 23.5356C40.709 23.4894 40.7686 23.4542 40.8335 23.432C40.8984 23.4099 40.9671 23.4013 41.0354 23.4068C41.1038 23.4123 41.1702 23.4319 41.2307 23.4641C41.2912 23.4964 41.3443 23.5408 41.3869 23.5945C41.4295 23.6482 41.4606 23.7101 41.4783 23.7764C41.4959 23.8426 41.4998 23.9118 41.4896 23.9796C41.4794 24.0473 41.4554 24.1123 41.419 24.1704L32.619 41.0804C32.5772 41.1612 32.5141 41.229 32.4365 41.2766C32.359 41.3242 32.27 41.3497 32.179 41.3504Z" fill="#D1D3D4"/>
<path d="M313.669 15.6904H250.949V108.15H313.669V15.6904Z" fill="white"/>
<path d="M313.659 108.65H250.949C250.816 108.65 250.689 108.598 250.595 108.504C250.501 108.41 250.449 108.283 250.449 108.15V15.6904C250.449 15.5578 250.501 15.4306 250.595 15.3369C250.689 15.2431 250.816 15.1904 250.949 15.1904H313.659C313.791 15.1904 313.918 15.2431 314.012 15.3369C314.106 15.4306 314.159 15.5578 314.159 15.6904V108.15C314.159 108.283 314.106 108.41 314.012 108.504C313.918 108.598 313.791 108.65 313.659 108.65ZM251.449 107.65H313.159V16.1904H251.449V107.65Z" fill="#D1D3D4"/>
<path d="M313.659 22.2904H250.949C250.816 22.2904 250.689 22.2377 250.595 22.144C250.501 22.0502 250.449 21.923 250.449 21.7904C250.449 21.6578 250.501 21.5306 250.595 21.4369C250.689 21.3431 250.816 21.2904 250.949 21.2904H313.659C313.791 21.2904 313.918 21.3431 314.012 21.4369C314.106 21.5306 314.159 21.6578 314.159 21.7904C314.159 21.923 314.106 22.0502 314.012 22.144C313.918 22.2377 313.791 22.2904 313.659 22.2904Z" fill="#D1D3D4"/>
<path d="M279.219 39.2104H259.349C259.217 39.2104 259.089 39.1577 258.996 39.064C258.902 38.9702 258.849 38.843 258.849 38.7104V27.5904C258.849 27.4578 258.902 27.3306 258.996 27.2369C259.089 27.1431 259.217 27.0904 259.349 27.0904H279.219C279.352 27.0904 279.479 27.1431 279.573 27.2369C279.666 27.3306 279.719 27.4578 279.719 27.5904V38.7104C279.719 38.843 279.666 38.9702 279.573 39.064C279.479 39.1577 279.352 39.2104 279.219 39.2104ZM259.849 38.2104H278.719V28.0904H259.849V38.2104Z" fill="#D1D3D4"/>
<path d="M307.169 65.1404H287.299C287.166 65.1404 287.039 65.0877 286.945 64.994C286.851 64.9002 286.799 64.773 286.799 64.6404V53.5204C286.799 53.3878 286.851 53.2606 286.945 53.1669C287.039 53.0731 287.166 53.0204 287.299 53.0204H307.169C307.301 53.0204 307.429 53.0731 307.522 53.1669C307.616 53.2606 307.669 53.3878 307.669 53.5204V64.6404C307.669 64.773 307.616 64.9002 307.522 64.994C307.429 65.0877 307.301 65.1404 307.169 65.1404ZM287.799 64.1404H306.669V54.0204H287.799V64.1404Z" fill="#D1D3D4"/>
<path d="M279.219 70.7004H259.349C259.217 70.7004 259.089 70.6477 258.996 70.554C258.902 70.4602 258.849 70.333 258.849 70.2004V59.0804C258.849 58.9478 258.902 58.8206 258.996 58.7269C259.089 58.6331 259.217 58.5804 259.349 58.5804H279.219C279.351 58.583 279.477 58.6365 279.57 58.7297C279.663 58.8229 279.717 58.9486 279.719 59.0804V70.2004C279.719 70.333 279.666 70.4602 279.573 70.554C279.479 70.6477 279.352 70.7004 279.219 70.7004ZM259.849 69.7004H278.719V59.5804H259.849V69.7004Z" fill="#D1D3D4"/>
<path d="M294.149 99.9304H274.279C274.146 99.9304 274.019 99.8777 273.925 99.784C273.831 99.6902 273.779 99.563 273.779 99.4304V88.3304C273.779 88.1978 273.831 88.0706 273.925 87.9769C274.019 87.8831 274.146 87.8304 274.279 87.8304H294.149C294.281 87.833 294.406 87.8865 294.5 87.9797C294.593 88.0729 294.646 88.1986 294.649 88.3304V99.4504C294.644 99.5795 294.589 99.7016 294.495 99.7911C294.402 99.8806 294.278 99.9305 294.149 99.9304ZM274.779 98.9304H293.649V88.8304H274.779V98.9304Z" fill="#D1D3D4"/>
<path d="M297.239 54.0204C297.106 54.0204 296.979 53.9677 296.885 53.874C296.791 53.7802 296.739 53.653 296.739 53.5204V47.7804H269.279C269.146 47.7804 269.019 47.7277 268.925 47.634C268.831 47.5402 268.779 47.413 268.779 47.2804V38.7104C268.779 38.5778 268.831 38.4506 268.925 38.3569C269.019 38.2631 269.146 38.2104 269.279 38.2104C269.411 38.2104 269.539 38.2631 269.632 38.3569C269.726 38.4506 269.779 38.5778 269.779 38.7104V46.7804H297.239C297.371 46.783 297.496 46.8365 297.59 46.9297C297.683 47.0229 297.736 47.1486 297.739 47.2804V53.5204C297.739 53.5861 297.726 53.6511 297.701 53.7118C297.676 53.7724 297.639 53.8275 297.592 53.874C297.546 53.9204 297.491 53.9572 297.43 53.9824C297.369 54.0075 297.304 54.0204 297.239 54.0204Z" fill="#D1D3D4"/>
<path d="M269.279 59.5804C269.146 59.5804 269.019 59.5277 268.925 59.434C268.831 59.3402 268.779 59.213 268.779 59.0804V47.2804C268.781 47.1486 268.835 47.0229 268.928 46.9297C269.021 46.8365 269.147 46.783 269.279 46.7804C269.411 46.7804 269.539 46.8331 269.632 46.9269C269.726 47.0206 269.779 47.1478 269.779 47.2804V59.0804C269.779 59.1461 269.766 59.2111 269.741 59.2718C269.716 59.3324 269.679 59.3875 269.632 59.434C269.586 59.4804 269.531 59.5172 269.47 59.5424C269.409 59.5675 269.344 59.5804 269.279 59.5804Z" fill="#D1D3D4"/>
<path d="M285.049 88.3204C284.916 88.3204 284.789 88.2677 284.695 88.174C284.601 88.0802 284.549 87.953 284.549 87.8204V80.5604H269.279C269.146 80.5604 269.019 80.5077 268.925 80.414C268.831 80.3202 268.779 80.193 268.779 80.0604V70.2004C268.781 70.0686 268.835 69.9429 268.928 69.8497C269.021 69.7565 269.147 69.703 269.279 69.7004C269.411 69.7004 269.539 69.7531 269.632 69.8469C269.726 69.9406 269.779 70.0678 269.779 70.2004V79.5604H285.049C285.181 79.5604 285.309 79.6131 285.402 79.7069C285.496 79.8006 285.549 79.9278 285.549 80.0604V87.8204C285.549 87.953 285.496 88.0802 285.402 88.174C285.309 88.2677 285.181 88.3204 285.049 88.3204Z" fill="#D1D3D4"/>
<path d="M57.769 19.3004H17.209C17.0764 19.3004 16.9492 19.2477 16.8554 19.154C16.7617 19.0602 16.709 18.933 16.709 18.8004C16.709 18.6678 16.7617 18.5406 16.8554 18.4469C16.9492 18.3531 17.0764 18.3004 17.209 18.3004H57.769C57.9008 18.303 58.0265 18.3565 58.1197 18.4497C58.2129 18.5429 58.2664 18.6686 58.269 18.8004C58.269 18.933 58.2163 19.0602 58.1225 19.154C58.0288 19.2477 57.9016 19.3004 57.769 19.3004Z" fill="#D1D3D4"/>
<path d="M63.9089 71.8004H1.41895V136.85H63.9089V71.8004Z" fill="white"/>
<path d="M63.8989 137.35H1.41895C1.28634 137.35 1.15916 137.298 1.06539 137.204C0.971623 137.11 0.918945 136.983 0.918945 136.85V71.8504C0.918945 71.7178 0.971623 71.5906 1.06539 71.4969C1.15916 71.4031 1.28634 71.3504 1.41895 71.3504H63.8989C64.0316 71.3504 64.1587 71.4031 64.2525 71.4969C64.3463 71.5906 64.3989 71.7178 64.3989 71.8504V136.85C64.3989 136.983 64.3463 137.11 64.2525 137.204C64.1587 137.298 64.0316 137.35 63.8989 137.35ZM1.89894 136.35H63.3789V72.3504H1.91895L1.89894 136.35Z" fill="#D1D3D4"/>
<path d="M63.8989 78.7304H1.41895C1.28634 78.7304 1.15916 78.6777 1.06539 78.584C0.971623 78.4902 0.918945 78.363 0.918945 78.2304C0.918945 78.0978 0.971623 77.9706 1.06539 77.8769C1.15916 77.7831 1.28634 77.7304 1.41895 77.7304H63.8989C64.0316 77.7304 64.1587 77.7831 64.2525 77.8769C64.3463 77.9706 64.3989 78.0978 64.3989 78.2304C64.3989 78.363 64.3463 78.4902 64.2525 78.584C64.1587 78.6777 64.0316 78.7304 63.8989 78.7304Z" fill="#D1D3D4"/>
<path d="M14.5392 83.9304H6.88916C6.75655 83.9304 6.62937 83.8777 6.53561 83.784C6.44184 83.6902 6.38916 83.563 6.38916 83.4304C6.38916 83.2978 6.44184 83.1706 6.53561 83.0769C6.62937 82.9831 6.75655 82.9304 6.88916 82.9304H14.5392C14.6718 82.9304 14.7989 82.9831 14.8927 83.0769C14.9865 83.1706 15.0392 83.2978 15.0392 83.4304C15.0392 83.563 14.9865 83.6902 14.8927 83.784C14.7989 83.8777 14.6718 83.9304 14.5392 83.9304Z" fill="#D1D3D4"/>
<path d="M33.7691 83.9304H18.5391C18.4065 83.9304 18.2793 83.8777 18.1855 83.784C18.0917 83.6902 18.0391 83.563 18.0391 83.4304C18.0416 83.2986 18.0951 83.1729 18.1883 83.0797C18.2816 82.9865 18.4073 82.933 18.5391 82.9304H33.7691C33.9017 82.9304 34.0289 82.9831 34.1226 83.0769C34.2164 83.1706 34.2691 83.2978 34.2691 83.4304C34.2691 83.563 34.2164 83.6902 34.1226 83.784C34.0289 83.8777 33.9017 83.9304 33.7691 83.9304Z" fill="#D1D3D4"/>
<path d="M38.3589 89.7204H23.1289C22.9963 89.7204 22.8691 89.6678 22.7754 89.574C22.6816 89.4802 22.6289 89.353 22.6289 89.2204C22.6289 89.0878 22.6816 88.9606 22.7754 88.8669C22.8691 88.7731 22.9963 88.7204 23.1289 88.7204H38.3589C38.4915 88.7204 38.6187 88.7731 38.7125 88.8669C38.8062 88.9606 38.8589 89.0878 38.8589 89.2204C38.8589 89.353 38.8062 89.4802 38.7125 89.574C38.6187 89.6678 38.4915 89.7204 38.3589 89.7204Z" fill="#D1D3D4"/>
<path d="M16.3187 89.7204H8.67871C8.5461 89.7204 8.41893 89.6678 8.32516 89.574C8.23139 89.4802 8.17871 89.353 8.17871 89.2204C8.18127 89.0886 8.23477 88.9629 8.32799 88.8697C8.42121 88.7765 8.5469 88.723 8.67871 88.7204H16.3187C16.4505 88.723 16.5762 88.7765 16.6694 88.8697C16.7627 88.9629 16.8162 89.0886 16.8187 89.2204C16.8187 89.353 16.766 89.4802 16.6723 89.574C16.5785 89.6678 16.4513 89.7204 16.3187 89.7204Z" fill="#D1D3D4"/>
<path d="M16.6087 95.5104H10.4688C10.3361 95.5104 10.209 95.4577 10.1152 95.364C10.0214 95.2702 9.96875 95.143 9.96875 95.0104C9.97131 94.8786 10.0248 94.7529 10.118 94.6597C10.2112 94.5665 10.3369 94.513 10.4688 94.5104H16.6087C16.7406 94.513 16.8663 94.5665 16.9595 94.6597C17.0527 94.7529 17.1062 94.8786 17.1087 95.0104C17.1087 95.143 17.0561 95.2702 16.9623 95.364C16.8685 95.4577 16.7414 95.5104 16.6087 95.5104Z" fill="#D1D3D4"/>
<path d="M41.079 95.5104H22.019C21.8864 95.5104 21.7593 95.4577 21.6655 95.364C21.5717 95.2702 21.519 95.143 21.519 95.0104C21.519 94.8778 21.5717 94.7506 21.6655 94.6569C21.7593 94.5631 21.8864 94.5104 22.019 94.5104H41.079C41.2117 94.5104 41.3388 94.5631 41.4326 94.6569C41.5264 94.7506 41.579 94.8778 41.579 95.0104C41.579 95.143 41.5264 95.2702 41.4326 95.364C41.3388 95.4577 41.2117 95.5104 41.079 95.5104Z" fill="#D1D3D4"/>
<path d="M19.899 101.3H12.269C12.1364 101.3 12.0093 101.248 11.9155 101.154C11.8217 101.06 11.769 100.933 11.769 100.8C11.769 100.668 11.8217 100.541 11.9155 100.447C12.0093 100.353 12.1364 100.3 12.269 100.3H19.899C20.0317 100.3 20.1588 100.353 20.2526 100.447C20.3464 100.541 20.399 100.668 20.399 100.8C20.399 100.933 20.3464 101.06 20.2526 101.154C20.1588 101.248 20.0317 101.3 19.899 101.3Z" fill="#D1D3D4"/>
<path d="M45.0289 101.3H22.3589C22.2263 101.3 22.0991 101.248 22.0053 101.154C21.9116 101.06 21.8589 100.933 21.8589 100.8C21.8589 100.668 21.9116 100.541 22.0053 100.447C22.0991 100.353 22.2263 100.3 22.3589 100.3H45.0289C45.1607 100.303 45.2864 100.356 45.3796 100.45C45.4728 100.543 45.5263 100.669 45.5289 100.8C45.5289 100.933 45.4762 101.06 45.3824 101.154C45.2887 101.248 45.1615 101.3 45.0289 101.3Z" fill="#D1D3D4"/>
<path d="M17.8688 107.09H10.2388C10.1062 107.09 9.97898 107.038 9.88522 106.944C9.79145 106.85 9.73877 106.723 9.73877 106.59C9.73877 106.458 9.79145 106.331 9.88522 106.237C9.97898 106.143 10.1062 106.09 10.2388 106.09H17.8688C18.0014 106.09 18.1286 106.143 18.2223 106.237C18.3161 106.331 18.3688 106.458 18.3688 106.59C18.3688 106.723 18.3161 106.85 18.2223 106.944C18.1286 107.038 18.0014 107.09 17.8688 107.09Z" fill="#D1D3D4"/>
<path d="M33.0888 107.09H20.7988C20.6662 107.09 20.539 107.038 20.4453 106.944C20.3515 106.85 20.2988 106.723 20.2988 106.59C20.2988 106.458 20.3515 106.331 20.4453 106.237C20.539 106.143 20.6662 106.09 20.7988 106.09H33.0888C33.2214 106.09 33.3486 106.143 33.4424 106.237C33.5362 106.331 33.5888 106.458 33.5888 106.59C33.5888 106.723 33.5362 106.85 33.4424 106.944C33.3486 107.038 33.2214 107.09 33.0888 107.09Z" fill="#D1D3D4"/>
<path d="M50.0791 107.09H37.7891C37.6565 107.09 37.5293 107.038 37.4355 106.944C37.3417 106.85 37.2891 106.723 37.2891 106.59C37.2891 106.458 37.3417 106.331 37.4355 106.237C37.5293 106.143 37.6565 106.09 37.7891 106.09H50.0791C50.2117 106.09 50.3388 106.143 50.4326 106.237C50.5264 106.331 50.5791 106.458 50.5791 106.59C50.5791 106.723 50.5264 106.85 50.4326 106.944C50.3388 107.038 50.2117 107.09 50.0791 107.09Z" fill="#D1D3D4"/>
<path d="M12.8688 112.93H10.2388C10.1062 112.93 9.97898 112.878 9.88522 112.784C9.79145 112.69 9.73877 112.563 9.73877 112.43C9.73877 112.298 9.79145 112.171 9.88522 112.077C9.97898 111.983 10.1062 111.93 10.2388 111.93H12.8688C13.0014 111.93 13.1286 111.983 13.2223 112.077C13.3161 112.171 13.3688 112.298 13.3688 112.43C13.3688 112.563 13.3161 112.69 13.2223 112.784C13.1286 112.878 13.0014 112.93 12.8688 112.93Z" fill="#D1D3D4"/>
<path d="M33.0891 112.93H17.3491C17.2165 112.93 17.0893 112.878 16.9956 112.784C16.9018 112.69 16.8491 112.563 16.8491 112.43C16.8517 112.299 16.9052 112.173 16.9984 112.08C17.0916 111.986 17.2173 111.933 17.3491 111.93H33.0891C33.2217 111.93 33.3489 111.983 33.4427 112.077C33.5364 112.171 33.5891 112.298 33.5891 112.43C33.5891 112.563 33.5364 112.69 33.4427 112.784C33.3489 112.878 33.2217 112.93 33.0891 112.93Z" fill="#D1D3D4"/>
<path d="M39.2889 112.93H34.8989C34.7663 112.93 34.6391 112.878 34.5454 112.784C34.4516 112.69 34.3989 112.563 34.3989 112.43C34.3989 112.298 34.4516 112.171 34.5454 112.077C34.6391 111.983 34.7663 111.93 34.8989 111.93H39.2889C39.4215 111.93 39.5487 111.983 39.6425 112.077C39.7362 112.171 39.7889 112.298 39.7889 112.43C39.7889 112.563 39.7362 112.69 39.6425 112.784C39.5487 112.878 39.4215 112.93 39.2889 112.93Z" fill="#D1D3D4"/>
<path d="M14.3688 118.67H10.2388C10.1062 118.67 9.97898 118.618 9.88522 118.524C9.79145 118.43 9.73877 118.303 9.73877 118.17C9.73877 118.038 9.79145 117.911 9.88522 117.817C9.97898 117.723 10.1062 117.67 10.2388 117.67H14.3688C14.5014 117.67 14.6286 117.723 14.7223 117.817C14.8161 117.911 14.8688 118.038 14.8688 118.17C14.8688 118.303 14.8161 118.43 14.7223 118.524C14.6286 118.618 14.5014 118.67 14.3688 118.67Z" fill="#D1D3D4"/>
<path d="M36.9388 118.67H18.2588C18.1262 118.67 17.999 118.618 17.9052 118.524C17.8115 118.43 17.7588 118.303 17.7588 118.17C17.7613 118.039 17.8148 117.913 17.9081 117.82C18.0013 117.726 18.127 117.673 18.2588 117.67H36.9388C37.0714 117.67 37.1986 117.723 37.2923 117.817C37.3861 117.911 37.4388 118.038 37.4388 118.17C37.4388 118.303 37.3861 118.43 37.2923 118.524C37.1986 118.618 37.0714 118.67 36.9388 118.67Z" fill="#D1D3D4"/>
<path d="M46.4191 118.67H38.7891C38.6565 118.67 38.5293 118.618 38.4355 118.524C38.3417 118.43 38.2891 118.303 38.2891 118.17C38.2891 118.038 38.3417 117.911 38.4355 117.817C38.5293 117.723 38.6565 117.67 38.7891 117.67H46.4191C46.5517 117.67 46.6788 117.723 46.7726 117.817C46.8664 117.911 46.9191 118.038 46.9191 118.17C46.9191 118.303 46.8664 118.43 46.7726 118.524C46.6788 118.618 46.5517 118.67 46.4191 118.67Z" fill="#D1D3D4"/>
<path d="M12.5387 124.46H8.44873C8.31612 124.46 8.18894 124.408 8.09518 124.314C8.00141 124.22 7.94873 124.093 7.94873 123.96C7.94873 123.828 8.00141 123.701 8.09518 123.607C8.18894 123.513 8.31612 123.46 8.44873 123.46H12.5387C12.6705 123.463 12.7962 123.516 12.8895 123.61C12.9827 123.703 13.0362 123.829 13.0387 123.96C13.0387 124.093 12.9861 124.22 12.8923 124.314C12.7985 124.408 12.6713 124.46 12.5387 124.46Z" fill="#D1D3D4"/>
<path d="M34.899 124.46H17.209C17.0764 124.46 16.9492 124.408 16.8554 124.314C16.7617 124.22 16.709 124.093 16.709 123.96C16.7115 123.829 16.765 123.703 16.8583 123.61C16.9515 123.516 17.0772 123.463 17.209 123.46H34.899C35.0316 123.46 35.1588 123.513 35.2525 123.607C35.3463 123.701 35.399 123.828 35.399 123.96C35.399 124.093 35.3463 124.22 35.2525 124.314C35.1588 124.408 35.0316 124.46 34.899 124.46Z" fill="#D1D3D4"/>
<path d="M16.0787 130.25H8.44873C8.31612 130.25 8.18894 130.198 8.09518 130.104C8.00141 130.01 7.94873 129.883 7.94873 129.75C7.94873 129.618 8.00141 129.491 8.09518 129.397C8.18894 129.303 8.31612 129.25 8.44873 129.25H16.0787C16.2113 129.25 16.3385 129.303 16.4323 129.397C16.5261 129.491 16.5787 129.618 16.5787 129.75C16.5787 129.883 16.5261 130.01 16.4323 130.104C16.3385 130.198 16.2113 130.25 16.0787 130.25Z" fill="#D1D3D4"/>
<path d="M58.4289 101.3H48.1089C47.9763 101.3 47.8491 101.248 47.7553 101.154C47.6616 101.06 47.6089 100.933 47.6089 100.8C47.6089 100.668 47.6616 100.541 47.7553 100.447C47.8491 100.353 47.9763 100.3 48.1089 100.3H58.4289C58.5615 100.3 58.6887 100.353 58.7824 100.447C58.8762 100.541 58.9289 100.668 58.9289 100.8C58.9289 100.933 58.8762 101.06 58.7824 101.154C58.6887 101.248 58.5615 101.3 58.4289 101.3Z" fill="#D1D3D4"/>
<path d="M42.9789 83.9304C37.8089 83.9304 37.6989 83.9304 37.6389 83.9304C37.5134 83.8912 37.4085 83.8041 37.3467 83.6881C37.285 83.5721 37.2714 83.4364 37.3089 83.3104C37.3417 83.1948 37.4158 83.0952 37.5173 83.0307C37.6187 82.9661 37.7403 82.9411 37.8589 82.9604C38.4689 82.9604 48.4589 82.9604 55.0589 82.9604C55.1915 82.9604 55.3187 83.0131 55.4125 83.1069C55.5062 83.2006 55.5589 83.3278 55.5589 83.4604C55.5589 83.593 55.5062 83.7202 55.4125 83.814C55.3187 83.9077 55.1915 83.9604 55.0589 83.9604C49.3689 83.9304 45.5389 83.9304 42.9789 83.9304Z" fill="#D1D3D4"/>
<path d="M44.669 124.46H36.939C36.8064 124.46 36.6792 124.408 36.5854 124.314C36.4916 124.22 36.439 124.093 36.439 123.96C36.4415 123.829 36.495 123.703 36.5882 123.61C36.6815 123.516 36.8072 123.463 36.939 123.46H44.669C44.8008 123.463 44.9265 123.516 45.0197 123.61C45.1129 123.703 45.1664 123.829 45.169 123.96C45.169 124.093 45.1163 124.22 45.0225 124.314C44.9287 124.408 44.8016 124.46 44.669 124.46Z" fill="#D1D3D4"/>
<path d="M26.9488 130.25H21.2588C21.1262 130.25 20.999 130.198 20.9052 130.104C20.8115 130.01 20.7588 129.883 20.7588 129.75C20.7613 129.619 20.8148 129.493 20.9081 129.4C21.0013 129.306 21.127 129.253 21.2588 129.25H26.9488C27.0806 129.253 27.2063 129.306 27.2995 129.4C27.3927 129.493 27.4462 129.619 27.4488 129.75C27.4488 129.883 27.3961 130.01 27.3023 130.104C27.2086 130.198 27.0814 130.25 26.9488 130.25Z" fill="#D1D3D4"/>
<path d="M42.6091 130.25H29.0991C28.9665 130.25 28.8393 130.198 28.7456 130.104C28.6518 130.01 28.5991 129.883 28.5991 129.75C28.6017 129.619 28.6552 129.493 28.7484 129.4C28.8416 129.306 28.9673 129.253 29.0991 129.25H42.6091C42.7409 129.253 42.8666 129.306 42.9598 129.4C43.0531 129.493 43.1066 129.619 43.1091 129.75C43.1091 129.883 43.0564 130.01 42.9627 130.104C42.8689 130.198 42.7417 130.25 42.6091 130.25Z" fill="#D1D3D4"/>
<path d="M279.719 170.04C293.648 170.04 304.939 158.749 304.939 144.82C304.939 130.892 293.648 119.6 279.719 119.6C265.79 119.6 254.499 130.892 254.499 144.82C254.499 158.749 265.79 170.04 279.719 170.04Z" fill="white"/>
<path d="M279.719 170.54C274.632 170.54 269.659 169.032 265.43 166.206C261.2 163.38 257.904 159.363 255.957 154.663C254.01 149.963 253.501 144.792 254.493 139.803C255.486 134.814 257.935 130.231 261.532 126.634C265.129 123.037 269.712 120.587 274.701 119.595C279.69 118.602 284.862 119.112 289.562 121.058C294.261 123.005 298.278 126.302 301.104 130.531C303.931 134.761 305.439 139.733 305.439 144.82C305.431 151.639 302.719 158.177 297.897 162.998C293.075 167.82 286.538 170.532 279.719 170.54ZM279.719 120.11C274.829 120.11 270.05 121.56 265.984 124.277C261.919 126.994 258.75 130.855 256.88 135.373C255.009 139.89 254.52 144.861 255.475 149.657C256.429 154.452 258.785 158.857 262.243 162.314C265.701 165.77 270.107 168.124 274.903 169.077C279.698 170.029 284.669 169.538 289.186 167.666C293.703 165.793 297.563 162.623 300.278 158.557C302.993 154.49 304.441 149.71 304.439 144.82C304.431 138.268 301.824 131.986 297.189 127.353C292.555 122.72 286.272 120.116 279.719 120.11Z" fill="#231F20"/>
<path d="M290.797 163.239L290.806 163.234C291.99 162.547 292.393 161.029 291.706 159.845L288.665 154.603C287.978 153.418 286.46 153.015 285.276 153.702L285.267 153.707C284.082 154.395 283.679 155.912 284.366 157.097L287.407 162.339C288.095 163.523 289.612 163.927 290.797 163.239Z" fill="white"/>
<path d="M289.539 164.08C289.279 164.082 289.02 164.049 288.769 163.98C288.39 163.881 288.034 163.707 287.723 163.468C287.413 163.23 287.153 162.931 286.959 162.59L283.959 157.36C283.565 156.675 283.458 155.862 283.66 155.098C283.862 154.334 284.358 153.681 285.039 153.28C285.724 152.887 286.537 152.779 287.301 152.982C288.065 153.184 288.718 153.679 289.119 154.36L292.119 159.6C292.512 160.287 292.617 161.101 292.413 161.865C292.209 162.629 291.712 163.281 291.029 163.68C290.575 163.941 290.062 164.079 289.539 164.08ZM286.539 153.93C286.189 153.931 285.845 154.02 285.539 154.19C285.085 154.458 284.754 154.893 284.62 155.402C284.485 155.912 284.556 156.454 284.819 156.91L287.819 162.14C288.114 162.529 288.542 162.797 289.021 162.892C289.5 162.988 289.997 162.905 290.419 162.659C290.841 162.413 291.158 162.021 291.311 161.557C291.464 161.093 291.442 160.589 291.249 160.14L288.249 154.91C287.987 154.455 287.555 154.121 287.049 153.98C286.881 153.944 286.71 153.928 286.539 153.93Z" fill="#231F20"/>
<path d="M279.719 159.97C288.462 159.97 295.549 152.883 295.549 144.14C295.549 135.398 288.462 128.31 279.719 128.31C270.976 128.31 263.889 135.398 263.889 144.14C263.889 152.883 270.976 159.97 279.719 159.97Z" fill="white"/>
<path d="M279.749 160.48C278.328 160.48 276.912 160.295 275.539 159.93C273.463 159.385 271.515 158.433 269.809 157.131C268.103 155.828 266.672 154.2 265.599 152.34C263.796 149.231 263.07 145.613 263.532 142.048C263.995 138.483 265.621 135.171 268.158 132.624C270.696 130.078 274.002 128.44 277.565 127.964C281.128 127.488 284.749 128.202 287.865 129.993C290.981 131.785 293.42 134.554 294.802 137.873C296.183 141.191 296.432 144.873 295.508 148.347C294.585 151.821 292.54 154.893 289.693 157.087C286.845 159.28 283.353 160.473 279.759 160.48H279.749ZM279.749 128.82C277.059 128.823 274.417 129.534 272.089 130.882C269.761 132.229 267.829 134.166 266.487 136.497C265.145 138.828 264.441 141.472 264.445 144.162C264.448 146.852 265.16 149.493 266.509 151.82C267.856 154.151 269.793 156.086 272.125 157.431C274.457 158.776 277.103 159.483 279.795 159.48C282.487 159.478 285.131 158.767 287.461 157.418C289.791 156.07 291.725 154.132 293.068 151.798C294.411 149.465 295.116 146.82 295.112 144.127C295.108 141.435 294.395 138.792 293.045 136.463C291.695 134.133 289.755 132.201 287.421 130.859C285.087 129.518 282.441 128.815 279.749 128.82Z" fill="#231F20"/>
<path d="M279.719 157.13C286.893 157.13 292.709 151.315 292.709 144.14C292.709 136.966 286.893 131.15 279.719 131.15C272.545 131.15 266.729 136.966 266.729 144.14C266.729 151.315 272.545 157.13 279.719 157.13Z" fill="#231F20"/>
</svg>
