<svg width="481" height="540" viewBox="0 0 481 540" fill="none" xmlns="http://www.w3.org/2000/svg">
<path d="M437.265 331.409C450.748 375.706 438.16 424.287 405.596 438.385C372.825 452.61 320.492 432.098 281.715 419.344C243.308 406.729 218.502 401.48 194.195 390.085C169.726 378.426 145.549 360.747 122.049 335.356C98.7547 309.839 75.7675 276.47 62.4626 235.713C48.9953 194.69 45.0476 146.015 62.7968 116.536C80.7526 86.9299 120.612 76.3942 156.052 89.7311C191.447 103.46 222.955 141.466 253.424 164.78C284.055 188.361 314.178 197.654 349.121 222.244C384.063 246.833 423.781 287.112 437.265 331.409Z" fill="#4190C2"/>
</svg>
