<svg width="275" height="362" viewBox="0 0 275 362" fill="none" xmlns="http://www.w3.org/2000/svg">
<path d="M118.441 139.443C118.441 139.443 49.1682 180.016 27.7592 199.184C6.35024 218.352 0.730194 320.903 0.730194 360.902H273.365C273.365 360.902 267.558 237.909 254.145 211.455C236.198 176.148 171.117 146.775 154.148 142.255C137.179 137.734 118.441 139.443 118.441 139.443Z" fill="#3F8EC0"/>
<path d="M273.365 361.678H0.776769C0.570894 361.678 0.373452 361.597 0.227877 361.451C0.0823015 361.305 0.000518799 361.108 0.000518799 360.902C0.000518799 325.175 5.01508 218.539 27.2935 198.594C48.5006 179.612 117.338 139.179 118.099 138.775C118.193 138.716 118.299 138.679 118.41 138.666C118.596 138.666 137.335 137.02 154.288 141.509C162.05 143.559 182.435 151.652 204.17 164.623C221.884 175.185 245.047 191.837 254.828 211.114C268.164 237.412 273.908 355.838 274.141 360.871C274.149 360.977 274.133 361.083 274.096 361.182C274.058 361.281 273.999 361.371 273.924 361.445C273.852 361.521 273.765 361.581 273.669 361.621C273.573 361.661 273.469 361.681 273.365 361.678ZM1.55302 360.125H272.557C272.014 349.407 266.068 236.682 253.446 211.797C236.074 177.531 171.909 147.769 153.9 143C138.064 138.806 120.63 140.033 118.72 140.189C115.087 142.317 48.8577 181.274 28.3181 199.743C19.2515 207.852 11.8927 232.938 7.03334 272.3C3.57858 301.455 1.74897 330.781 1.55302 360.141V360.125Z" fill="#231F20"/>
<path d="M108.427 156.996L137.071 186.866L162.345 158.906C162.345 158.906 127.212 160.957 108.427 156.996Z" fill="#231F20"/>
<path d="M137.071 187.627C136.966 187.63 136.863 187.61 136.767 187.57C136.67 187.53 136.584 187.47 136.512 187.394L107.868 157.508C107.754 157.391 107.681 157.239 107.661 157.076C107.641 156.913 107.676 156.749 107.76 156.607C107.843 156.465 107.968 156.351 108.118 156.281C108.268 156.212 108.435 156.19 108.598 156.219C127.057 160.118 161.895 158.099 162.237 158.083C162.39 158.074 162.543 158.11 162.675 158.187C162.808 158.265 162.915 158.38 162.982 158.518C163.05 158.656 163.075 158.812 163.053 158.964C163.03 159.117 162.963 159.259 162.858 159.372L137.583 187.332C137.509 187.41 137.42 187.472 137.321 187.514C137.222 187.557 137.116 187.58 137.009 187.581L137.071 187.627ZM110.678 158.207L137.071 185.732L160.545 159.729C153.279 160.071 127.119 161.065 110.678 158.207Z" fill="#231F20"/>
<path d="M183.77 80.1367C186.699 73.6458 188.746 66.7916 189.856 59.757C190.073 58.4056 192.604 43.1829 188.132 43.5713C193.876 43.0685 199.407 41.1528 204.232 37.9948C204.588 37.8008 204.888 37.517 205.101 37.1715C205.8 35.789 203.751 34.7483 202.229 34.4376C195.717 33.0721 189.983 29.2436 186.223 23.7507C183.77 20.1159 182 15.6112 178.088 13.623C173.632 11.3396 167.934 13.2346 163.401 11.1221C160.296 9.66198 158.278 6.58638 155.639 4.41171C149.506 -0.558952 140.331 -0.124016 133.252 3.37098C130.147 4.92432 127.135 6.91258 123.797 6.47765C121.499 6.16698 119.528 4.70685 117.323 4.00785C110.259 1.73998 103.35 7.48732 98.398 13.0793C94.7341 17.2733 94.7186 21.0013 92.7003 25.6924C91.0547 29.4825 87.2666 31.9057 85.2638 35.6648C81.1652 43.4314 82.1588 52.7515 84.8602 60.8909C85.4967 62.7394 100.292 89.3325 95.588 89.0528C109.297 89.8916 123.114 91.0566 136.947 90.8547C147.938 90.7149 177.901 93.0915 183.77 80.1367Z" fill="white"/>
<path d="M148.233 91.7246C146.137 91.7246 144.135 91.7246 142.303 91.7246C140.471 91.7246 138.452 91.7246 136.978 91.7246C125.753 91.8954 114.389 91.1498 103.413 90.4353L95.5569 89.9227C95.4529 89.9168 95.351 89.8903 95.2572 89.8449C95.1634 89.7995 95.0795 89.736 95.0103 89.6581C94.941 89.5802 94.8879 89.4893 94.8538 89.3908C94.8197 89.2923 94.8054 89.188 94.8117 89.0839C94.8112 88.9771 94.8331 88.8713 94.8761 88.7735C94.9191 88.6757 94.9822 88.5881 95.0612 88.5163C95.1403 88.4445 95.2336 88.3901 95.3351 88.3568C95.4365 88.3235 95.5439 88.3119 95.6501 88.3228C96.5195 87.1267 93.3213 79.36 86.1177 65.2713C84.8757 62.8326 84.2702 61.6521 84.115 61.2171C81.7707 54.3048 79.9543 44.2081 84.5652 35.3852C85.594 33.5751 86.8573 31.909 88.3223 30.43C89.8058 28.9873 91.0388 27.3075 91.9706 25.4594C92.5694 24.0611 93.0877 22.6297 93.5231 21.1722C94.2946 18.0334 95.7706 15.1117 97.8391 12.6288C104.918 4.52045 111.579 1.38272 117.618 3.30885C118.528 3.6183 119.415 3.99205 120.273 4.42725C121.418 5.05199 122.654 5.49232 123.937 5.73205C126.483 6.07378 128.982 4.76898 131.404 3.49525L132.957 2.71858C139.71 -0.621086 149.506 -1.56861 156.244 3.85252C157.241 4.68799 158.185 5.58553 159.07 6.53979C160.425 8.12434 162.055 9.4505 163.882 10.4542C166.087 11.2879 168.436 11.6682 170.791 11.5726C173.45 11.4579 176.101 11.9354 178.554 12.9706C181.659 14.5239 183.506 17.6306 185.245 20.5664C185.804 21.5139 186.378 22.4614 186.984 23.3624C190.619 28.6977 196.187 32.408 202.509 33.7076C203.197 33.8051 203.857 34.0446 204.448 34.4109C205.038 34.7773 205.546 35.2624 205.94 35.8356C206.081 36.1065 206.155 36.4076 206.155 36.7133C206.155 37.0189 206.081 37.32 205.94 37.5909C205.663 38.0636 205.267 38.4548 204.791 38.7248C200.51 41.5326 195.676 43.3867 190.616 44.1615C192.448 47.2682 191.532 55.1591 190.787 59.8191C189.655 66.9736 187.567 73.9433 184.577 80.5406C179.904 90.6062 161.911 91.7246 148.233 91.7246ZM138.282 90.0314H142.318C154.847 90.1868 178.165 90.4974 183.04 79.7639C185.96 73.3358 188.002 66.5437 189.111 59.5706C190.368 51.7107 190.306 46.0255 188.971 44.5809C188.883 44.4798 188.773 44.4015 188.648 44.3528C188.524 44.3041 188.389 44.2864 188.257 44.3013C188.048 44.3105 187.844 44.2402 187.686 44.1047C187.527 43.9692 187.426 43.7785 187.403 43.5713C187.386 43.3594 187.452 43.1492 187.589 42.9864C187.726 42.8235 187.921 42.7211 188.132 42.7014C193.726 42.2277 199.117 40.3817 203.828 37.3269C204.057 37.1967 204.257 37.0225 204.418 36.8142C204.448 36.7623 204.464 36.7034 204.464 36.6434C204.464 36.5834 204.448 36.5245 204.418 36.4725C203.823 35.781 202.994 35.3331 202.089 35.2143C195.361 33.8338 189.435 29.883 185.571 24.2012C184.95 23.2847 184.375 22.3061 183.785 21.3275C182.078 18.4383 180.479 15.72 177.746 14.3375C175.489 13.4114 173.057 12.9925 170.62 13.1104C168.044 13.2105 165.476 12.7768 163.075 11.8367C161.072 10.7575 159.283 9.32025 157.797 7.59605C156.955 6.68673 156.058 5.83073 155.111 5.03305C148.978 0.0623838 139.881 0.97885 133.593 4.08552C133.081 4.33405 132.584 4.59812 132.041 4.86218C129.401 6.24465 126.653 7.67371 123.626 7.26985C122.176 7.00699 120.776 6.51408 119.481 5.80972C118.688 5.40672 117.869 5.05898 117.028 4.76898C110.321 2.60985 103.49 8.38825 98.9258 13.6075C97.0113 15.9258 95.6518 18.6515 94.9514 21.5761C94.5012 22.9741 94.051 24.4342 93.3989 26.0186C92.3961 28.0292 91.0691 29.8608 89.4711 31.4397C88.0902 32.8294 86.8999 34.3965 85.9314 36.0997C81.5844 44.4256 83.3543 54.0718 85.5899 60.689C85.6985 61.0307 86.5369 62.6462 87.4995 64.5257C93.7095 76.8126 97.6528 85.2472 97.2181 88.416L103.428 88.8198C114.389 89.5344 125.722 90.28 136.869 90.1091L138.282 90.0314Z" fill="#231F20"/>
<path d="M170.713 84.2997C173.617 69.4187 198.658 66.6072 196.733 84.1909C196.097 90.2334 193.939 96.338 189.545 100.516C185.152 104.695 178.212 106.512 172.763 103.841" fill="white"/>
<path d="M178.398 105.907C176.325 105.922 174.276 105.466 172.406 104.571C172.214 104.474 172.068 104.306 171.998 104.103C171.929 103.9 171.941 103.677 172.033 103.483C172.129 103.295 172.296 103.153 172.496 103.086C172.696 103.019 172.914 103.034 173.104 103.126C177.979 105.518 184.5 104.198 188.986 100.019C193.846 95.3594 195.445 88.8664 195.942 84.1909C196.578 77.9776 193.706 73.8768 188.257 73.069C181.596 72.0594 173.058 76.533 171.49 84.5326C171.471 84.6363 171.432 84.7352 171.375 84.8236C171.317 84.912 171.243 84.9881 171.156 85.0473C171.069 85.1066 170.971 85.148 170.868 85.1689C170.765 85.1899 170.658 85.19 170.555 85.1694C170.452 85.1487 170.354 85.1076 170.267 85.0486C170.179 84.9896 170.105 84.9137 170.047 84.8255C169.99 84.7373 169.95 84.6385 169.931 84.5348C169.913 84.4312 169.914 84.3248 169.937 84.222C171.676 75.3369 181.131 70.3663 188.567 71.4847C193.504 72.2147 198.472 75.9893 197.587 84.3618C197.075 89.3014 195.367 96.2292 190.151 101.184C186.976 104.197 182.773 105.885 178.398 105.907Z" fill="#231F20"/>
<path d="M108.846 82.156C106.983 67.1042 82.283 62.553 82.904 80.2454C83.1059 86.3034 84.8291 92.5478 88.9433 97.0214C93.0574 101.495 99.8108 103.794 105.446 101.511" fill="white"/>
<path d="M100.711 103.142C98.3648 103.106 96.051 102.587 93.9141 101.617C91.7772 100.647 89.8631 99.2462 88.2912 97.503C83.4318 92.2061 82.2054 85.1695 82.0812 80.1988C81.7862 71.7953 87.0026 68.378 91.9861 67.9896C99.4537 67.3994 108.505 72.9914 109.638 81.9696C109.66 82.181 109.6 82.3928 109.47 82.5607C109.34 82.7286 109.15 82.8397 108.939 82.8706C108.728 82.8929 108.516 82.8326 108.349 82.7023C108.181 82.572 108.07 82.3818 108.039 82.1716C107.03 74.0787 98.8326 69.0148 92.1103 69.574C86.6145 70.009 83.4629 73.9544 83.6802 80.1367C83.851 84.7967 84.9843 91.476 89.5176 96.4001C93.6939 100.967 100.121 102.738 105.136 100.687C105.332 100.61 105.55 100.612 105.744 100.693C105.939 100.774 106.094 100.928 106.176 101.122C106.216 101.219 106.237 101.323 106.237 101.428C106.237 101.533 106.217 101.637 106.176 101.734C106.136 101.83 106.076 101.918 106.002 101.992C105.927 102.066 105.839 102.124 105.741 102.163C104.145 102.815 102.436 103.147 100.711 103.142Z" fill="#231F20"/>
<path d="M108.427 156.996C108.427 156.996 119.838 162.821 139.477 163.504C159.116 164.188 162.33 158.844 162.33 158.844L161.864 148.359L160.793 123.972L159.753 101.184L115.025 99.631L112.898 118.162L112.231 124.174L108.427 156.996Z" fill="white"/>
<path d="M142.753 164.358H139.415C119.869 163.675 108.536 157.99 108.07 157.757C107.926 157.681 107.807 157.563 107.73 157.419C107.652 157.275 107.62 157.112 107.635 156.949L114.187 99.6C114.21 99.401 114.308 99.2182 114.461 99.0885C114.613 98.9588 114.81 98.8918 115.01 98.901L159.737 100.454C159.939 100.458 160.132 100.539 160.277 100.681C160.421 100.822 160.506 101.013 160.514 101.215L163.091 158.875C163.096 159.039 163.053 159.201 162.966 159.341C162.827 159.512 159.629 164.358 142.753 164.358ZM109.297 156.592C111.687 157.679 122.539 162.199 139.462 162.805C156.12 163.395 160.669 159.559 161.476 158.704L158.945 102.085L115.693 100.532L109.297 156.592Z" fill="#231F20"/>
<path d="M112.231 124.189C115.413 129.75 120.863 134.208 126.483 137.595C135.922 143.264 150.112 149.757 161.864 148.375L160.793 123.987C152.194 124.759 143.534 124.519 134.99 123.273C127.461 122.341 119.714 121.331 112.898 118.178L112.231 124.189Z" fill="#231F20"/>
<path d="M158.48 149.338C146.417 149.338 133.205 142.565 126.032 138.247C119.264 134.177 114.389 129.579 111.517 124.578C111.44 124.435 111.407 124.273 111.423 124.112L112.075 118.1C112.09 117.978 112.133 117.862 112.2 117.759C112.267 117.657 112.358 117.572 112.464 117.51C112.575 117.456 112.697 117.428 112.821 117.428C112.944 117.428 113.066 117.456 113.178 117.51C120.086 120.71 128.02 121.673 135.037 122.527C143.517 123.785 152.116 124.03 160.653 123.257C160.758 123.245 160.864 123.254 160.965 123.283C161.067 123.312 161.161 123.362 161.243 123.428C161.326 123.496 161.393 123.581 161.439 123.678C161.484 123.774 161.508 123.88 161.507 123.987L162.594 148.375C162.603 148.569 162.537 148.759 162.41 148.907C162.283 149.054 162.104 149.147 161.911 149.167C160.772 149.294 159.626 149.351 158.48 149.338ZM112.991 124.018C115.739 128.678 120.397 133.043 126.84 136.927C134.369 141.462 148.73 148.779 160.995 147.676L159.986 124.842C151.599 125.53 143.161 125.259 134.835 124.034C128.035 123.211 120.366 122.263 113.488 119.374L112.991 124.018Z" fill="#231F20"/>
<path d="M135.052 128.834L139.058 128.974C148.147 129.288 156.989 125.977 163.639 119.77C170.288 113.562 174.201 104.966 174.517 95.872V94.1322C174.734 87.7429 174.931 81.3638 175.107 74.9952C175.231 70.972 177.203 63.1898 172.08 61.2326C171.039 60.8288 169.844 60.8909 168.804 60.456C167.46 59.698 166.377 58.5497 165.699 57.1629C164.592 55.2089 163.153 53.4636 161.445 52.0058C157.517 48.8992 154.443 51.8194 150.376 50.7942C143.483 49.0545 136.527 43.9285 129.153 45.1712C127.755 45.5658 126.303 45.7336 124.853 45.6682C123.744 45.4589 122.689 45.0312 121.748 44.41C119.539 43.1201 117.428 41.6717 115.429 40.0762C115.456 41.7279 115.117 43.365 114.435 44.8693C113.753 46.3736 112.746 47.7076 111.486 48.7749C110.852 49.1615 110.319 49.6941 109.933 50.3282C109.467 51.4466 110.088 52.6893 110.15 53.9009C110.29 56.526 107.868 58.4056 106.192 60.4249C101.969 65.4888 102.512 73.9544 102.295 80.1678L101.829 93.2779C101.663 97.7986 102.392 102.308 103.975 106.545C105.557 110.783 107.961 114.666 111.049 117.97C114.137 121.275 117.847 123.936 121.967 125.8C126.086 127.664 130.533 128.695 135.052 128.834Z" fill="white"/>
<path d="M140.269 129.797H139.027L135.037 129.657C125.738 129.321 116.951 125.309 110.604 118.501C104.257 111.693 100.867 102.645 101.177 93.3401L101.627 80.2299C101.627 79.3601 101.627 78.4436 101.627 77.4961C101.72 71.7332 101.844 64.5723 105.648 60.0055C106.005 59.5706 106.409 59.1357 106.812 58.7007C108.21 57.1474 109.514 55.7649 109.436 54.0407C109.404 53.6584 109.342 53.2792 109.25 52.9068C108.955 51.9982 108.955 51.0194 109.25 50.1108C109.612 49.4086 110.146 48.8099 110.802 48.3711L111.035 48.1847C112.198 47.1917 113.128 45.9545 113.759 44.5611C114.389 43.1677 114.705 41.6523 114.684 40.1229C114.68 39.9685 114.72 39.8163 114.8 39.6841C114.88 39.552 114.995 39.4455 115.134 39.3773C115.271 39.3126 115.423 39.2871 115.574 39.3035C115.725 39.32 115.868 39.3777 115.988 39.4705C117.955 41.0378 120.031 42.4652 122.198 43.7421C123.041 44.2908 123.978 44.6803 124.961 44.8916C125.964 44.9719 126.972 44.8773 127.942 44.612C128.299 44.5343 128.656 44.4567 129.013 44.4101C134.121 43.5247 138.965 45.5595 143.653 47.5167C145.892 48.5222 148.201 49.3632 150.562 50.0331C151.955 50.3207 153.392 50.3207 154.785 50.0331C156.004 49.698 157.283 49.6484 158.525 49.8882C159.766 50.1279 160.935 50.6506 161.942 51.4156C163.708 52.9399 165.204 54.7517 166.366 56.7746C166.668 57.6915 167.235 58.4982 167.995 59.0927C168.755 59.6872 169.674 60.0427 170.636 60.1143C171.232 60.1912 171.82 60.3265 172.39 60.5181C177.125 62.3511 176.551 68.2848 176.116 72.5564C176.038 73.4729 175.945 74.3428 175.93 75.0729L175.883 77.6669C175.712 83.1657 175.557 88.6645 175.355 94.1633V95.903C175.038 104.993 171.208 113.604 164.673 119.926C158.137 126.248 149.406 129.786 140.315 129.797H140.269ZM116.236 41.6607C115.901 44.6856 114.417 47.466 112.091 49.4273L111.843 49.6293C111.421 49.9201 111.071 50.3024 110.818 50.7477C110.63 51.3495 110.63 51.9942 110.818 52.5961C110.924 53.051 110.997 53.5131 111.035 53.9786C111.159 56.3707 109.483 58.2037 107.93 59.8036C107.558 60.223 107.185 60.6269 106.828 61.0463C103.397 65.1781 103.273 71.7487 103.18 77.5426C103.18 78.4902 103.18 79.4222 103.18 80.2921L102.729 93.4177C102.449 102.292 105.697 110.916 111.762 117.398C117.828 123.88 126.214 127.691 135.084 127.995L139.073 128.135C143.467 128.29 147.849 127.579 151.967 126.04C156.086 124.501 159.861 122.166 163.078 119.167C166.294 116.168 168.889 112.564 170.713 108.562C172.537 104.56 173.555 100.237 173.71 95.8409V94.1012C173.912 88.6024 174.067 83.1036 174.222 77.6203L174.315 74.9797C174.315 74.2185 174.424 73.3176 174.517 72.3545C174.905 68.3469 175.402 63.3607 171.8 61.9783C171.338 61.8171 170.859 61.7077 170.372 61.6521C169.735 61.5759 169.11 61.4247 168.509 61.2016C167.002 60.3812 165.783 59.1179 165.016 57.5823C163.956 55.7124 162.58 54.041 160.948 52.6427C160.112 52.0124 159.14 51.5871 158.11 51.401C157.08 51.2148 156.021 51.273 155.018 51.5709C153.42 51.9056 151.771 51.9056 150.174 51.5709C147.733 50.8821 145.346 50.015 143.032 48.9769C138.623 47.1129 133.966 45.1712 129.308 45.9634L128.299 46.1653C127.146 46.475 125.947 46.5749 124.759 46.4605C123.57 46.2315 122.436 45.7724 121.422 45.1091C119.635 44.0497 117.904 42.8987 116.236 41.6607Z" fill="#231F20"/>
<path d="M139.042 98.8855C136.686 98.8801 134.332 98.7297 131.994 98.435C131.784 98.4005 131.595 98.2857 131.468 98.1147C131.34 97.9438 131.284 97.7301 131.311 97.5185C131.342 97.3093 131.453 97.1206 131.622 96.9928C131.79 96.865 132.002 96.8084 132.211 96.8351C135.454 97.2518 138.728 97.3662 141.992 97.1768C142.086 97.1757 142.177 97.149 142.256 97.0998C142.336 97.0505 142.4 96.9804 142.442 96.8972C143.995 94.474 140.176 83.0259 137.443 76.3776C137.385 76.2784 137.349 76.1678 137.336 76.0533C137.324 75.9388 137.337 75.8231 137.373 75.7138C137.409 75.6045 137.468 75.5042 137.546 75.4197C137.625 75.3352 137.72 75.2683 137.826 75.2236C137.932 75.1789 138.046 75.1575 138.161 75.1606C138.276 75.1638 138.389 75.1915 138.493 75.242C138.596 75.2924 138.688 75.3644 138.761 75.4531C138.834 75.5418 138.888 75.6452 138.918 75.7563C139.679 77.6048 146.23 93.8371 143.809 97.736C143.634 98.039 143.386 98.2932 143.088 98.4751C142.789 98.657 142.45 98.7607 142.101 98.7767C141.061 98.8544 140.036 98.8855 139.042 98.8855Z" fill="#231F20"/>
<path d="M109.933 95.2506L108.846 114.543C108.846 114.543 116.423 129.3 140.005 128.927C157.502 128.647 165.311 118.054 166.817 114.543C168.323 111.033 167.965 95.0021 167.965 95.0021L109.933 95.2506Z" fill="white"/>
<path d="M139.136 129.735C116.019 129.735 108.225 115.056 108.086 114.916C108.011 114.789 107.979 114.643 107.992 114.496L109.079 95.204C109.091 95.0006 109.179 94.8092 109.326 94.6681C109.473 94.5269 109.667 94.4465 109.871 94.4429L167.903 94.1944C168.114 94.1982 168.314 94.2824 168.465 94.4297C168.615 94.5771 168.703 94.7763 168.711 94.9866C168.711 95.639 169.052 111.234 167.5 114.854C165.745 118.908 157.409 129.455 139.943 129.735H139.136ZM109.638 114.357C110.585 115.91 118.394 128.135 139.136 128.135H139.989C156.586 127.871 164.457 118.007 166.087 114.155C167.205 111.561 167.267 100.641 167.189 95.7322L110.678 96.0428L109.638 114.357Z" fill="#231F20"/>
<path d="M109.933 96.0584C109.761 96.0582 109.594 96.0021 109.457 95.8984C109.319 95.7947 109.22 95.6491 109.172 95.4836L101.192 69.077C101.163 68.975 101.154 68.8681 101.165 68.7626C101.177 68.6571 101.209 68.5548 101.261 68.4618C101.312 68.3688 101.381 68.2867 101.464 68.2204C101.547 68.154 101.642 68.1046 101.744 68.0751C101.846 68.0455 101.952 68.0363 102.058 68.048C102.163 68.0597 102.265 68.0921 102.358 68.1433C102.451 68.1945 102.533 68.2635 102.6 68.3464C102.666 68.4293 102.715 68.5245 102.745 68.6265L110.74 95.0332C110.798 95.2371 110.774 95.4556 110.672 95.6416C110.57 95.8275 110.4 95.9661 110.197 96.0273C110.112 96.0566 110.022 96.0672 109.933 96.0584Z" fill="#231F20"/>
<path d="M167.965 95.8099H167.717C167.516 95.7424 167.35 95.5987 167.254 95.4099C167.159 95.221 167.141 95.0021 167.205 94.8002L174.579 71.8419C174.645 71.6359 174.79 71.4646 174.982 71.3655C175.077 71.3165 175.181 71.2867 175.288 71.2778C175.394 71.2689 175.502 71.2811 175.604 71.3138C175.706 71.3464 175.8 71.3988 175.882 71.468C175.964 71.5372 176.031 71.6218 176.08 71.717C176.129 71.8122 176.159 71.9161 176.168 72.0228C176.176 72.1296 176.164 72.237 176.132 72.339L168.757 95.2972C168.698 95.4563 168.589 95.5921 168.446 95.6844C168.303 95.7767 168.135 95.8207 167.965 95.8099Z" fill="#231F20"/>
<path d="M154.985 72.3784C155.081 69.1614 154.103 66.5217 152.8 66.4826C151.496 66.4435 150.362 69.0197 150.265 72.2368C150.169 75.4538 151.147 78.0935 152.45 78.1326C153.754 78.1717 154.888 75.5955 154.985 72.3784Z" fill="#231F20"/>
<path d="M124.923 71.3526C125.019 68.1355 124.041 65.4959 122.738 65.4568C121.434 65.4177 120.3 67.9939 120.203 71.2109C120.107 74.428 121.085 77.0677 122.388 77.1068C123.692 77.1459 124.826 74.5697 124.923 71.3526Z" fill="#231F20"/>
<path d="M142.039 124.888H141.883C141.783 124.866 141.689 124.825 141.605 124.766C141.521 124.707 141.449 124.632 141.394 124.545C141.34 124.459 141.302 124.362 141.285 124.261C141.268 124.16 141.271 124.056 141.294 123.956C143.778 112.632 141.294 98.3573 141.294 98.202C141.276 98.1019 141.278 97.9992 141.301 97.9001C141.324 97.801 141.366 97.7074 141.425 97.6249C141.484 97.5423 141.56 97.4725 141.646 97.4196C141.733 97.3666 141.83 97.3316 141.93 97.3166C142.132 97.2803 142.34 97.3252 142.508 97.4416C142.677 97.558 142.793 97.7364 142.831 97.9379C142.924 98.5282 145.361 112.664 142.831 124.345C142.779 124.511 142.672 124.655 142.529 124.754C142.385 124.852 142.213 124.9 142.039 124.888Z" fill="#D1D3D4"/>
<path d="M53.3444 361.678C53.1505 361.679 52.9637 361.605 52.8223 361.472C52.6809 361.339 52.5956 361.158 52.5837 360.964L43.3929 217.933C43.3805 217.727 43.4505 217.524 43.5873 217.37C43.7241 217.216 43.9167 217.122 44.1226 217.11C44.3284 217.097 44.5308 217.167 44.6851 217.304C44.8394 217.441 44.933 217.634 44.9454 217.84L54.1207 360.855C54.127 360.957 54.1131 361.059 54.0798 361.156C54.0465 361.253 53.9945 361.342 53.9267 361.418C53.8589 361.495 53.7767 361.557 53.6847 361.602C53.5928 361.646 53.493 361.672 53.391 361.678H53.3444Z" fill="#231F20"/>
<path d="M218.732 361.678C218.631 361.671 218.532 361.643 218.441 361.596C218.351 361.549 218.271 361.485 218.206 361.407C218.141 361.328 218.092 361.238 218.062 361.141C218.033 361.043 218.023 360.941 218.034 360.84L230.981 226.709C231.005 226.506 231.108 226.32 231.268 226.192C231.428 226.064 231.632 226.004 231.835 226.026C231.935 226.035 232.033 226.065 232.121 226.112C232.21 226.16 232.288 226.225 232.352 226.303C232.415 226.381 232.463 226.47 232.491 226.567C232.52 226.663 232.529 226.765 232.518 226.865L219.509 360.995C219.486 361.184 219.394 361.359 219.251 361.485C219.108 361.611 218.923 361.68 218.732 361.678Z" fill="#231F20"/>
<path d="M137.071 361.678C136.865 361.678 136.667 361.597 136.522 361.451C136.376 361.305 136.294 361.108 136.294 360.902V186.928C136.294 186.722 136.376 186.525 136.522 186.379C136.667 186.234 136.865 186.152 137.071 186.152C137.277 186.152 137.474 186.234 137.62 186.379C137.765 186.525 137.847 186.722 137.847 186.928V360.902C137.849 361.004 137.83 361.106 137.792 361.201C137.754 361.297 137.697 361.383 137.624 361.456C137.552 361.528 137.465 361.585 137.37 361.624C137.275 361.662 137.173 361.68 137.071 361.678Z" fill="#231F20"/>
<path d="M114.823 207.215C114.699 207.213 114.577 207.183 114.467 207.126C114.357 207.07 114.261 206.988 114.187 206.889C100.463 187.27 93.8957 159.45 93.8336 159.17C93.8106 159.072 93.8073 158.971 93.8238 158.872C93.8403 158.772 93.8764 158.677 93.9298 158.592C93.9832 158.507 94.0529 158.433 94.135 158.375C94.2171 158.317 94.3099 158.276 94.408 158.254C94.6077 158.207 94.8177 158.241 94.9922 158.349C95.1668 158.457 95.2916 158.629 95.3395 158.829C95.3395 159.093 101.689 185.686 114.761 204.994L128.237 181.305C128.287 181.218 128.354 181.141 128.433 181.079C128.513 181.017 128.604 180.971 128.702 180.944C128.799 180.918 128.9 180.911 129.001 180.923C129.101 180.936 129.197 180.968 129.285 181.018C129.373 181.068 129.45 181.135 129.511 181.214C129.573 181.294 129.619 181.385 129.646 181.483C129.672 181.58 129.679 181.682 129.667 181.782C129.654 181.882 129.622 181.979 129.572 182.066L115.491 206.827C115.427 206.941 115.335 207.036 115.224 207.104C115.112 207.172 114.985 207.21 114.854 207.215H114.823Z" fill="#231F20"/>
<path d="M165.513 205.662C165.39 205.661 165.27 205.631 165.162 205.574C165.054 205.518 164.961 205.436 164.892 205.335L146.867 179.985C146.749 179.817 146.701 179.61 146.733 179.407C146.765 179.204 146.874 179.021 147.038 178.898C147.121 178.838 147.216 178.796 147.316 178.773C147.415 178.75 147.519 178.747 147.62 178.764C147.721 178.782 147.818 178.819 147.904 178.874C147.991 178.929 148.066 179 148.125 179.084L165.326 203.301C167.748 197.274 177.575 171.675 176.846 155.613C176.842 155.511 176.858 155.409 176.893 155.314C176.928 155.218 176.982 155.13 177.051 155.055C177.12 154.98 177.204 154.919 177.296 154.876C177.389 154.834 177.489 154.809 177.591 154.805C177.694 154.797 177.798 154.81 177.895 154.843C177.993 154.877 178.083 154.93 178.159 155.001C178.234 155.071 178.295 155.156 178.336 155.251C178.378 155.345 178.399 155.448 178.398 155.551C179.237 174.098 166.755 203.922 166.227 205.258C166.171 205.381 166.084 205.489 165.976 205.57C165.867 205.652 165.74 205.705 165.606 205.724L165.513 205.662Z" fill="#231F20"/>
<path d="M183.77 313.137C183.633 313.138 183.498 313.1 183.382 313.028L153.714 296.423C153.594 296.354 153.495 296.254 153.427 296.134C153.358 296.014 153.323 295.878 153.325 295.739V250.025C153.323 249.924 153.342 249.823 153.379 249.729C153.416 249.635 153.472 249.549 153.543 249.477C153.614 249.404 153.698 249.347 153.791 249.308C153.885 249.268 153.985 249.248 154.086 249.248H205.225C205.327 249.248 205.427 249.268 205.52 249.308C205.614 249.347 205.698 249.404 205.769 249.477C205.84 249.549 205.896 249.635 205.933 249.729C205.97 249.823 205.988 249.924 205.986 250.025V295.755C205.987 295.872 205.961 295.987 205.909 296.092C205.858 296.197 205.784 296.289 205.691 296.361L184.236 312.981C184.102 313.084 183.938 313.139 183.77 313.137ZM154.862 295.289L183.646 311.428L204.403 295.367V250.786H154.862V295.289Z" fill="#231F20"/>
</svg>
