<svg width="14" height="30" viewBox="0 0 14 30" fill="none" xmlns="http://www.w3.org/2000/svg">
<path d="M8.27863 0H5.62987C4.16186 0 2.7636 0.588987 1.6928 1.65843C0.613734 2.73608 0.0194902 4.1542 0.0194902 5.65002L2.54569e-06 11.5307C-0.000811885 11.7735 0.193895 11.9709 0.43485 11.9717H0.436305C0.67662 11.9717 0.871792 11.7759 0.872607 11.5337L0.883834 8.1524H8.85903C9.42529 8.16078 9.425 7.26497 8.85903 7.27341H7.3699V4.42686C7.3699 4.18408 7.17461 3.98737 6.9336 3.98737C6.69258 3.98737 6.49729 4.18408 6.49729 4.42686V7.27341H0.886742L0.892094 5.65148C0.892094 3.06454 3.06174 0.878997 5.62981 0.878997H6.49724V2.32823C6.49724 2.57101 6.69253 2.76773 6.93354 2.76773C7.17455 2.76773 7.36984 2.57101 7.36984 2.32823V0.878997H8.27857C10.891 0.878997 13.0163 3.01994 13.0163 5.65148V7.27341H10.9423C10.3761 7.26503 10.3764 8.16084 10.9423 8.1524H13.0163V15.8839C13.0163 18.4106 11.0504 20.4816 8.58282 20.6194V19.0742C8.58282 18.1857 7.86513 17.4627 6.98304 17.4627C6.10096 17.4627 5.38327 18.1857 5.38327 19.0742V20.6196C2.88378 20.4835 0.892036 18.4117 0.892036 15.8839V13.6908C0.892036 13.448 0.696748 13.2513 0.455734 13.2513C0.214721 13.2513 0.0194325 13.448 0.0194325 13.6908V15.8839C0.0194325 18.8963 2.40234 21.3627 5.38327 21.4999V24.5303L3.92579 23.0622C3.30199 22.4338 2.28704 22.4339 1.66324 23.0622C1.03956 23.6906 1.03956 24.7129 1.66324 25.3413L5.82266 29.5312C6.41818 30.1563 7.48968 30.1563 8.0852 29.5311L9.70679 27.8976C9.87718 27.726 9.87718 27.4477 9.70673 27.2761C9.5364 27.1045 9.26013 27.1045 9.08974 27.2762L7.46815 28.9096C7.19759 29.1938 6.71033 29.1938 6.43976 28.9096L2.28035 24.7198C1.99681 24.4342 1.99681 23.9694 2.28035 23.6838C2.55097 23.3996 3.03812 23.3996 3.30874 23.6838L5.50474 25.896C5.76797 26.1752 6.26326 25.9636 6.25587 25.5789V19.0743C6.25587 18.6704 6.58205 18.3418 6.98304 18.3418C7.38403 18.3418 7.71021 18.6704 7.71021 19.0743V25.5203C7.70283 25.9051 8.19806 26.1166 8.46129 25.8374L10.5992 23.6838C10.8827 23.3981 11.3441 23.3982 11.6276 23.6838C11.9111 23.9694 11.9111 24.4342 11.6276 24.7197L10.5295 25.8258C10.3591 25.9975 10.3591 26.2757 10.5295 26.4474C10.7 26.619 10.9761 26.619 11.1466 26.4474L12.2447 25.3412C12.8684 24.7129 12.8684 23.6905 12.2447 23.0621C11.6209 22.4338 10.6059 22.4338 9.98213 23.0621L8.58282 24.4717V21.4999C9.97654 21.4357 11.275 20.8594 12.2631 19.8605C13.3115 18.8005 13.8889 17.3883 13.8889 15.8839V5.65148C13.8889 2.53526 11.3722 0 8.27863 0V0Z" fill="black"/>
</svg>
