<svg width="253" height="335" viewBox="0 0 253 335" fill="none" xmlns="http://www.w3.org/2000/svg">
<path d="M218.136 143.278C220.366 143.278 222.582 143.278 224.812 143.278C225.491 143.356 226.177 143.223 226.772 142.898C227.13 142.532 227.393 142.087 227.537 141.602C227.681 141.117 227.703 140.606 227.601 140.111C227.329 134.083 227.42 124.393 222.959 119.547C218.497 114.702 210.208 115.169 208.038 107.376C206.666 102.384 209.228 97.2763 211.052 92.4163C212.876 87.5564 213.885 81.4559 210.133 77.8219C207.857 75.589 204.224 74.7425 202.446 72.1009C199.1 67.1534 204.662 61.0092 205.053 55.0984C205.445 49.1877 200.788 44.4737 196.01 41.0586C191.233 37.6435 185.716 34.6371 182.898 29.5582C180.909 25.9972 180.517 21.8524 179.462 17.8827C178.636 14.8209 177.087 11.9867 174.937 9.60348C172.787 7.22025 170.095 5.35316 167.073 4.14937C145.083 -4.21323 120.998 2.42723 109.921 23.4578C107.419 28.2155 105.685 33.6738 102.867 38.2273C99.8527 43.0726 93.5678 44.8823 89.3025 48.7061C87.4404 50.3777 85.9657 52.4127 84.9758 54.6769C83.986 56.9411 83.5035 59.3829 83.5601 61.841C83.7108 65.9567 85.3687 70.189 83.9821 74.0857C82.5955 77.9825 78.5714 80.5073 77.4862 84.4186C75.557 91.4531 81.0431 99.2465 79.1893 107.127C78.6102 109.836 77.5331 112.421 76.0092 114.76C74.2736 117.071 72.2486 119.164 69.9805 120.992C64.8119 125.205 60.2498 130.069 56.4159 135.455C55.1892 137.328 54.1447 139.306 53.2961 141.366C53.7374 141.329 54.1811 141.329 54.6224 141.366H134.156C162.37 141.366 189.921 143.176 218.136 143.176V143.278Z" fill="white"/>
<path d="M225.069 144.08H224.813C222.567 144.08 220.291 144.08 218.136 144.08H218C203.878 144.08 189.695 143.628 175.995 143.176C162.295 142.723 148.112 142.285 134.02 142.285H54.3511C54.1099 142.285 53.6578 142.285 53.4317 142.285C53.2661 142.343 53.0848 142.343 52.9193 142.285C52.7284 142.211 52.5755 142.066 52.4937 141.883C52.4119 141.7 52.4078 141.493 52.4822 141.308C53.3465 139.19 54.4164 137.158 55.6774 135.236C59.5573 129.802 64.1699 124.893 69.3927 120.642L69.6791 120.394C71.8183 118.686 73.7273 116.725 75.3611 114.556C76.8279 112.296 77.8499 109.792 78.3755 107.171C79.2798 103.362 78.3755 99.4946 77.4862 95.7292C76.597 91.9639 75.6927 88.111 76.6874 84.4478C77.4228 82.3383 78.6033 80.3999 80.1539 78.756C81.4241 77.3645 82.4431 75.7758 83.1683 74.0566C83.8098 71.5107 83.8098 68.8528 83.1683 66.3069C82.9225 64.9064 82.7615 63.4932 82.686 62.0746C82.6173 59.4945 83.1198 56.9302 84.1596 54.5538C85.1995 52.1775 86.7526 50.0442 88.7147 48.2974C90.4956 46.815 92.4184 45.5005 94.457 44.3715C97.5467 42.5326 100.486 40.7813 102.189 37.9792C103.76 35.2849 105.13 32.4854 106.288 29.602C107.193 27.4858 108.142 25.2967 109.212 23.268C120.004 2.7629 143.877 -5.3224 167.344 3.59478C170.489 4.81512 173.299 6.72653 175.551 9.17823C177.803 11.6299 179.436 14.5548 180.321 17.7222C180.622 18.8751 180.878 20.0427 181.135 21.2102C181.585 23.9708 182.443 26.6544 183.682 29.1788C185.897 33.1485 189.906 35.8776 193.795 38.5046L196.508 40.3727C202.959 44.9845 206.199 50.078 205.867 55.0838C205.576 57.4638 204.926 59.7896 203.938 61.987C202.567 65.5042 201.27 68.8464 203.139 71.6193C204.206 72.9329 205.567 73.9956 207.118 74.7279C208.428 75.4086 209.643 76.2471 210.735 77.2235C215.167 81.6019 213.328 88.7823 211.821 92.6644C211.58 93.3066 211.323 93.9487 211.052 94.6055C209.394 98.7649 207.661 103.07 208.791 107.171C210.012 111.55 213.313 113.097 216.764 114.702C219.302 115.704 221.604 117.193 223.531 119.08C227.752 123.663 228.053 132.113 228.309 138.272L228.385 140.096C228.495 140.718 228.447 141.357 228.245 141.958C228.042 142.558 227.692 143.101 227.224 143.541C226.58 143.932 225.828 144.12 225.069 144.08ZM54.3812 140.709H134.066C148.188 140.709 162.37 141.176 176.086 141.614C189.801 142.052 203.953 142.519 218.045 142.519H218.136C220.366 142.519 222.582 142.519 224.813 142.519C225.329 142.576 225.852 142.49 226.32 142.271C226.832 141.906 226.862 140.986 226.832 140.125L226.757 138.287C226.531 132.347 226.229 124.203 222.386 120.044C220.583 118.327 218.447 116.973 216.101 116.059C212.454 114.381 208.701 112.63 207.299 107.565C206.018 102.983 207.842 98.4438 209.605 94.0509C209.861 93.4087 210.118 92.7812 210.359 92.139C211.73 88.5926 213.463 82.0689 209.62 78.2889C208.627 77.3977 207.518 76.6371 206.319 76.0268C204.547 75.1896 202.999 73.9656 201.798 72.4512C199.492 69.0361 200.999 65.154 202.446 61.447C203.37 59.3873 203.984 57.2101 204.27 54.9817C204.647 49.3336 199.748 44.5759 195.543 41.584C194.639 40.9419 193.72 40.3143 192.785 39.6867C188.761 36.943 184.586 34.1117 182.235 29.8355C180.921 27.1883 180.008 24.3719 179.522 21.4729C179.281 20.32 179.025 19.1816 178.723 18.0432C177.929 15.096 176.438 12.3677 174.37 10.0731C172.301 7.77861 169.71 5.98058 166.801 4.82071C144.194 -3.80458 121.044 3.98883 110.629 23.7934C109.574 25.7783 108.655 27.9382 107.75 30.0252C106.565 32.9734 105.165 35.8363 103.56 38.5922C101.616 41.7154 98.4058 43.6272 95.3161 45.4807C93.3932 46.5903 91.5772 47.8651 89.8903 49.2899C88.0991 50.8936 86.6829 52.8498 85.7367 55.0272C84.7904 57.2045 84.3361 59.5527 84.4042 61.914C84.4787 63.2741 84.6347 64.6287 84.8714 65.9713C85.5516 68.7588 85.5154 71.6652 84.7659 74.436C83.9823 76.3178 82.8709 78.0555 81.4802 79.5732C80.0676 81.0564 78.9851 82.805 78.3001 84.7105C77.3958 88.0234 78.2247 91.5552 79.114 95.2914C80.0032 99.0276 80.9829 103.245 80.0032 107.39C79.4151 110.19 78.3014 112.861 76.7176 115.271C75.0098 117.546 73.0149 119.605 70.7793 121.401L70.4929 121.649C65.3719 125.819 60.8504 130.634 57.0489 135.966C56.0296 137.475 55.1375 139.061 54.3812 140.709Z" fill="#231F20"/>
<path d="M125.821 125.94C125.821 125.94 69.7996 154.939 51.1107 172.934C32.4217 190.929 33.4767 296.432 33.4767 334.012H250.6C250.6 334.012 255.936 218.424 244.225 193.614C228.565 160.353 171.76 132.828 156.899 128.596C142.039 124.363 125.821 125.94 125.821 125.94Z" fill="#84C6F1"/>
<path d="M250.6 334.742H33.4767C33.2769 334.742 33.0852 334.665 32.9438 334.528C32.8025 334.391 32.7231 334.206 32.7231 334.012V328.306C32.7231 286.858 32.5573 189.79 50.5831 172.423C69.1365 154.559 124.902 125.589 125.46 125.298C125.554 125.276 125.652 125.276 125.746 125.298C125.912 125.298 142.325 123.736 157.11 127.968C170.509 131.777 228.671 158.908 244.918 193.38C256.554 218.103 251.565 329.4 251.354 334.129C251.325 334.302 251.233 334.458 251.095 334.571C250.956 334.683 250.781 334.744 250.6 334.742ZM34.2303 333.297H249.877C250.299 323.635 254.579 217.315 243.547 193.906C228.385 161.798 172.393 133.762 156.688 129.282C142.883 125.356 127.675 126.509 126.032 126.655C123.018 128.246 69.5886 156.15 51.6382 173.459C34.1248 190.403 34.1248 287.018 34.2152 328.306L34.2303 333.297Z" fill="#231F20"/>
<path d="M116.447 142.431C116.447 142.431 121.707 197.598 142.641 197.598C154.699 197.598 170.223 176.962 168.731 144.183L116.447 142.431Z" fill="#231F20"/>
<path d="M142.641 198.313C133.598 198.313 126.288 188.856 120.968 170.205C118.477 161.106 116.713 151.836 115.693 142.475C115.684 142.371 115.698 142.267 115.735 142.168C115.771 142.07 115.829 141.981 115.904 141.906C115.977 141.831 116.066 141.771 116.165 141.731C116.264 141.69 116.37 141.671 116.477 141.672L168.761 143.438C168.946 143.446 169.122 143.52 169.253 143.647C169.385 143.774 169.462 143.945 169.469 144.124C170.826 173.751 158.919 188.272 155.166 192.009C151.172 196.095 146.726 198.313 142.641 198.313ZM117.276 143.19C118.044 150.02 123.983 196.868 142.641 196.868C146.304 196.868 150.373 194.796 154.081 191.031C165.219 179.764 168.565 159.945 168.007 144.898L117.276 143.19Z" fill="#231F20"/>
<path d="M172.438 74.1295C175.272 60.1481 199.492 57.5065 197.698 74.0274C197.08 79.7046 195.001 85.4402 190.72 89.3661C186.44 93.292 179.718 94.9995 174.428 92.4893" fill="white"/>
<path d="M179.899 94.372C177.886 94.3869 175.897 93.9577 174.081 93.1169C173.982 93.0772 173.892 93.0183 173.817 92.9436C173.742 92.8689 173.684 92.7801 173.646 92.6828C173.608 92.5854 173.591 92.4815 173.597 92.3776C173.602 92.2737 173.629 92.1719 173.677 92.0787C173.725 91.9854 173.792 91.9026 173.874 91.8354C173.956 91.7683 174.051 91.7182 174.154 91.6883C174.257 91.6583 174.365 91.6492 174.472 91.6615C174.579 91.6738 174.682 91.7072 174.774 91.7596C179.492 94.0071 185.837 92.7666 190.178 88.8407C194.895 84.4624 196.447 78.3619 196.93 73.969C197.548 68.1312 194.759 64.2783 189.484 63.5194C183.003 62.5708 174.729 66.774 173.192 74.2901C173.174 74.3872 173.136 74.4799 173.08 74.5627C173.025 74.6456 172.953 74.7169 172.869 74.7726C172.785 74.8283 172.69 74.8672 172.59 74.8871C172.49 74.907 172.387 74.9074 172.287 74.8885C172.086 74.8462 171.908 74.7299 171.793 74.5639C171.678 74.3979 171.634 74.1952 171.67 73.9982C173.358 65.6502 182.536 60.98 189.756 62.0308C194.548 62.7313 199.371 66.2632 198.512 74.1295C198.015 78.7706 196.357 85.2797 191.293 89.9353C188.215 92.7619 184.141 94.3482 179.899 94.372Z" fill="#231F20"/>
<path d="M118.421 72.1155C116.597 57.9735 92.6183 53.712 93.2211 70.3204C93.4171 76.0268 95.1051 81.8792 99.084 86.0824C103.063 90.2856 109.634 92.4455 115.12 90.3001" fill="white"/>
<path d="M110.523 91.8909C108.246 91.8574 105.999 91.3697 103.925 90.4582C101.85 89.5467 99.9921 88.231 98.4661 86.5932C93.7486 81.6165 92.558 75.0052 92.4374 70.335C92.151 62.4394 97.2151 59.2286 102.053 58.8638C109.318 58.3092 118.105 63.5778 119.19 71.9988C119.211 72.1957 119.152 72.3929 119.025 72.5483C118.899 72.7038 118.714 72.8051 118.512 72.8306C118.41 72.8428 118.308 72.8355 118.21 72.809C118.112 72.7825 118.02 72.7373 117.94 72.6762C117.86 72.6151 117.794 72.5393 117.744 72.453C117.695 72.3668 117.664 72.2719 117.652 72.1739C116.658 64.5702 108.715 59.8416 102.174 60.3378C96.8383 60.7465 93.7788 64.4535 93.9898 70.262C94.1556 74.6403 95.2709 80.9159 99.6567 85.557C103.711 89.8331 109.951 91.4823 114.819 89.5704C114.913 89.5323 115.014 89.5127 115.115 89.5127C115.217 89.5127 115.318 89.5322 115.412 89.5703C115.506 89.6083 115.591 89.664 115.663 89.7342C115.734 89.8044 115.791 89.8876 115.829 89.9791C115.868 90.0711 115.889 90.1697 115.889 90.2694C115.889 90.369 115.869 90.4678 115.83 90.5599C115.791 90.6521 115.733 90.7358 115.661 90.8064C115.588 90.8771 115.502 90.9331 115.407 90.9715C113.855 91.5776 112.197 91.8897 110.523 91.8909Z" fill="#231F20"/>
<path d="M116.507 142.431C119.017 147.072 122.764 150.978 127.36 153.742C131.956 156.506 137.233 158.028 142.641 158.15C147.917 158.461 153.175 157.313 157.803 154.84C162.43 152.367 166.236 148.671 168.776 144.183L168.324 134.331L167.284 111.418L166.289 89.9937L122.852 88.5342L120.787 105.945L120.139 111.593L116.507 142.431Z" fill="white"/>
<path d="M143.832 158.923H142.611C137.065 158.771 131.659 157.196 126.948 154.357C122.237 151.518 118.389 147.519 115.799 142.767C115.736 142.645 115.71 142.509 115.723 142.373L122.083 88.5342C122.106 88.3472 122.201 88.1755 122.349 88.0536C122.498 87.9318 122.688 87.8688 122.882 87.8775L166.304 89.3369C166.5 89.3405 166.687 89.4166 166.828 89.5495C166.968 89.6825 167.05 89.8622 167.058 90.052L169.559 144.226C169.565 144.352 169.54 144.477 169.484 144.591C166.945 149.002 163.219 152.664 158.702 155.188C154.185 157.712 149.046 159.002 143.832 158.923ZM117.306 142.3C119.789 146.748 123.438 150.484 127.885 153.133C132.332 155.782 137.422 157.251 142.641 157.391C147.738 157.678 152.816 156.575 157.298 154.207C161.779 151.838 165.485 148.3 167.992 143.993L165.535 90.7088L123.545 89.2493L117.306 142.3Z" fill="#231F20"/>
<path d="M120.139 111.608C123.244 116.833 128.519 121.021 133.975 124.203C143.139 129.53 156.929 135.63 168.324 134.331L167.284 111.418C158.936 112.158 150.527 111.932 142.234 110.747C134.925 109.886 127.404 108.923 120.787 105.96L120.139 111.608Z" fill="#231F20"/>
<path d="M165.083 135.236C153.372 135.236 140.546 128.873 133.598 124.831C127.012 120.992 122.279 116.672 119.491 111.973C119.416 111.839 119.385 111.686 119.401 111.535L120.034 105.887C120.048 105.773 120.089 105.663 120.155 105.567C120.22 105.471 120.308 105.39 120.411 105.332C120.519 105.282 120.637 105.256 120.757 105.256C120.877 105.256 120.996 105.282 121.104 105.332C127.811 108.339 135.527 109.244 142.325 110.046C150.561 111.235 158.915 111.466 167.208 110.732C167.309 110.72 167.411 110.73 167.507 110.76C167.604 110.79 167.692 110.841 167.766 110.907C167.846 110.969 167.911 111.047 167.958 111.135C168.005 111.223 168.032 111.319 168.037 111.418L169.077 134.331C169.086 134.516 169.023 134.696 168.9 134.837C168.777 134.978 168.603 135.068 168.414 135.09C167.307 135.198 166.195 135.247 165.083 135.236ZM120.923 111.462C123.591 115.84 128.112 119.927 134.367 123.575C141.692 127.837 155.618 134.711 167.525 133.675L166.545 112.221C158.398 112.868 150.201 112.614 142.114 111.462C135.512 110.689 128.067 109.798 121.39 107.084L120.923 111.462Z" fill="#231F20"/>
<path d="M142.355 115.972L146.228 116.103C155.052 116.398 163.636 113.288 170.091 107.456C176.547 101.623 180.346 93.5467 180.652 85.0024V83.3678C180.833 78.3765 180.939 73.3852 181.135 68.3939C181.285 64.9935 182.868 60.8632 180.291 58.0465C178.784 56.6322 177.054 55.4596 175.166 54.5731C165.045 48.8783 157.139 40.1196 152.664 29.6458C145.088 39.7135 134.29 47.076 121.948 50.5888C118.858 51.4499 115.572 52.0482 113.101 54.106C107.554 58.4844 110.87 64.5994 110.674 70.2912C110.523 74.3971 110.378 78.503 110.237 82.6089C110.08 86.8425 110.786 91.0646 112.316 95.0335C113.846 99.0024 116.169 102.64 119.152 105.739C122.135 108.838 125.72 111.337 129.701 113.092C133.683 114.848 137.983 115.827 142.355 115.972Z" fill="white"/>
<path d="M147.419 116.877H146.198L142.325 116.745C133.3 116.422 124.775 112.647 118.619 106.249C112.463 99.8499 109.178 91.349 109.484 82.6089L109.921 70.2912C109.931 68.678 109.8 67.0668 109.529 65.4751C108.941 61.3157 108.338 56.9957 112.634 53.566C114.978 51.9303 117.654 50.796 120.486 50.2385L121.767 49.8882C133.975 46.4486 144.654 39.1729 152.121 29.208C152.203 29.0994 152.313 29.0139 152.44 28.9601C152.568 28.9062 152.707 28.886 152.845 28.9015C152.984 28.9175 153.116 28.9693 153.227 29.0514C153.339 29.1335 153.425 29.243 153.478 29.3685C157.877 39.6909 165.67 48.3195 175.648 53.9163L176.357 54.3103C178.061 55.1344 179.614 56.2241 180.954 57.5357C183.124 59.9146 182.687 63.0524 182.295 65.8107C182.152 66.676 182.057 67.5481 182.009 68.4231C181.888 71.2836 181.793 74.1441 181.722 77.0046C181.722 79.1354 181.602 81.2662 181.526 83.397V85.0316C181.218 93.5717 177.5 101.663 171.156 107.603C164.811 113.542 156.334 116.867 147.51 116.877H147.419ZM152.544 31.149C144.905 40.8505 134.256 47.9248 122.159 51.3331L120.863 51.6979C118.251 52.2053 115.777 53.2342 113.598 54.719C109.966 57.6379 110.463 61.1697 111.036 65.2707C111.323 66.9491 111.459 68.6484 111.443 70.3496L110.991 82.6965C110.702 91.0388 113.841 99.1516 119.721 105.255C125.601 111.359 133.741 114.956 142.355 115.257L146.244 115.388C154.862 115.672 163.245 112.631 169.55 106.933C175.855 101.236 179.566 93.3479 179.869 85.0024V83.3678C179.944 81.2516 180.004 79.1208 180.065 76.99C180.14 74.0712 180.23 71.2544 180.351 68.3939C180.4 67.4699 180.501 66.5491 180.652 65.6356C181.029 62.9502 181.391 60.4254 179.688 58.5719C178.465 57.378 177.043 56.3914 175.483 55.653L174.759 55.2444C164.913 49.6848 157.136 41.2503 152.544 31.149Z" fill="#231F20"/>
<path d="M146.213 87.8337C143.926 87.8273 141.641 87.686 139.371 87.4105C139.269 87.3962 139.171 87.3625 139.082 87.3115C138.994 87.2605 138.916 87.1931 138.855 87.1131C138.793 87.0331 138.749 86.9421 138.723 86.8454C138.698 86.7487 138.693 86.6481 138.708 86.5494C138.722 86.4511 138.757 86.3567 138.81 86.2716C138.863 86.1866 138.933 86.1126 139.016 86.0542C139.099 85.9957 139.193 85.9539 139.292 85.9311C139.392 85.9084 139.496 85.9052 139.597 85.9218C142.741 86.3044 145.914 86.4069 149.077 86.2283C149.168 86.2289 149.257 86.2046 149.335 86.1581C149.412 86.1116 149.474 86.0449 149.514 85.9656C151.021 83.6889 147.314 72.9328 144.661 66.6864C144.622 66.5954 144.603 66.4979 144.603 66.3995C144.603 66.301 144.624 66.2037 144.663 66.1129C144.702 66.0221 144.759 65.9396 144.831 65.8703C144.903 65.8009 144.989 65.746 145.083 65.7086C145.177 65.6712 145.278 65.6521 145.379 65.6524C145.481 65.6527 145.582 65.6724 145.675 65.7104C145.769 65.7483 145.854 65.8038 145.926 65.8736C145.997 65.9434 146.054 66.0262 146.093 66.1172C146.831 67.8394 153.192 83.0905 150.84 86.7537C150.671 87.0384 150.43 87.2773 150.141 87.4482C149.851 87.6191 149.521 87.7165 149.182 87.7315C148.173 87.8045 147.163 87.8337 146.213 87.8337Z" fill="#231F20"/>
<path d="M117.954 84.4186L116.914 102.545C116.914 102.545 124.254 116.41 147.148 116.059C164.149 115.811 171.715 105.843 173.177 102.545C174.639 99.2465 174.292 84.1559 174.292 84.1559L117.954 84.4186Z" fill="white"/>
<path d="M146.319 116.818C123.862 116.818 116.296 103.026 116.175 102.895C116.115 102.772 116.085 102.637 116.085 102.501L117.14 84.3748C117.152 84.1851 117.238 84.0068 117.38 83.8766C117.523 83.7463 117.712 83.674 117.909 83.6743L174.292 83.4262C174.496 83.4298 174.691 83.5089 174.837 83.6473C174.983 83.7857 175.068 83.9729 175.076 84.1705C175.076 84.7981 175.422 99.4362 173.9 102.851C172.197 106.646 164.088 116.555 147.163 116.818H146.319ZM117.683 102.37C118.602 103.829 126.183 115.315 146.319 115.315H147.163C163.275 115.067 170.916 105.799 172.498 102.253C173.584 99.8157 173.644 89.5558 173.569 84.944L118.723 85.1775L117.683 102.37Z" fill="#231F20"/>
<path d="M117.954 85.1775C117.787 85.175 117.626 85.1214 117.493 85.0243C117.361 84.9272 117.263 84.7918 117.215 84.6375L109.468 59.827C109.411 59.6354 109.432 59.4298 109.528 59.253C109.623 59.0762 109.786 58.942 109.981 58.8784C110.179 58.8126 110.396 58.8247 110.584 58.9121C110.773 58.9994 110.919 59.155 110.991 59.3454L118.738 84.1559C118.768 84.2517 118.778 84.3524 118.768 84.452C118.757 84.5517 118.727 84.6484 118.678 84.7366C118.629 84.8248 118.562 84.9027 118.482 84.9658C118.402 85.029 118.309 85.0761 118.21 85.1045L117.954 85.1775Z" fill="#231F20"/>
<path d="M174.292 84.944C174.217 84.9578 174.141 84.9578 174.066 84.944C173.871 84.8804 173.708 84.7462 173.613 84.5694C173.517 84.3926 173.496 84.187 173.554 83.9954L180.713 62.4248C180.778 62.2362 180.917 62.08 181.101 61.99C181.284 61.8999 181.496 61.8831 181.692 61.9432C181.888 62.0068 182.05 62.141 182.145 62.3178C182.241 62.4946 182.262 62.7003 182.205 62.8918L175.046 84.4186C174.992 84.5713 174.891 84.704 174.756 84.7982C174.621 84.8924 174.459 84.9434 174.292 84.944Z" fill="#231F20"/>
<path d="M163.132 63.6817C163.241 60.6609 162.304 58.1776 161.039 58.135C159.775 58.0925 158.662 60.5068 158.553 63.5276C158.445 66.5484 159.382 69.0317 160.647 69.0742C161.911 69.1168 163.024 66.7024 163.132 63.6817Z" fill="#231F20"/>
<path d="M133.795 62.6961C133.903 59.6753 132.966 57.192 131.701 57.1494C130.437 57.1069 129.324 59.5212 129.216 62.542C129.107 65.5628 130.044 68.0461 131.309 68.0886C132.573 68.1312 133.686 65.7168 133.795 62.6961Z" fill="#231F20"/>
<path d="M149.137 112.192H148.972C148.874 112.171 148.782 112.132 148.701 112.077C148.619 112.021 148.55 111.951 148.497 111.869C148.443 111.788 148.407 111.697 148.391 111.602C148.374 111.507 148.377 111.41 148.399 111.316C150.81 100.677 148.399 87.2645 148.399 87.1332C148.381 87.0373 148.383 86.939 148.404 86.8439C148.426 86.7488 148.466 86.6587 148.524 86.5787C148.581 86.4987 148.654 86.4305 148.739 86.3779C148.823 86.3253 148.918 86.2893 149.017 86.2721C149.116 86.2548 149.217 86.2566 149.315 86.2774C149.414 86.2981 149.507 86.3374 149.589 86.3929C149.672 86.4485 149.742 86.5193 149.797 86.6012C149.851 86.6831 149.888 86.7746 149.906 86.8705C150.011 87.4396 152.378 100.706 149.906 111.681C149.858 111.839 149.755 111.976 149.615 112.069C149.475 112.162 149.307 112.205 149.137 112.192Z" fill="#D1D3D4"/>
<path d="M113.101 210.967H112.709C111.744 210.879 110.87 210.076 110.026 208.5C104.555 198.284 98.7524 148.94 100.501 146.007C104.208 139.775 112.377 135.791 112.724 135.572C112.816 135.527 112.916 135.5 113.019 135.492C113.122 135.484 113.225 135.496 113.323 135.528C113.421 135.559 113.512 135.608 113.59 135.674C113.669 135.739 113.733 135.818 113.779 135.908C113.865 136.087 113.877 136.291 113.812 136.478C113.748 136.665 113.612 136.821 113.432 136.915C113.342 136.915 105.324 140.928 101.842 146.751C100.682 149.802 106.047 199.685 111.79 208.456C112.257 209.172 112.634 209.449 112.845 209.463C117.818 209.887 127.193 199.043 130.388 194.869C130.441 194.774 130.515 194.69 130.604 194.625C130.694 194.559 130.797 194.513 130.906 194.489C131.015 194.466 131.129 194.465 131.238 194.487C131.348 194.509 131.451 194.554 131.542 194.618C131.632 194.683 131.707 194.765 131.762 194.859C131.816 194.954 131.849 195.059 131.859 195.167C131.868 195.275 131.853 195.384 131.815 195.486C131.777 195.589 131.717 195.682 131.639 195.759C131.157 196.343 120.034 210.967 113.101 210.967Z" fill="#231F20"/>
<path d="M170.976 210.967C164.209 210.967 154.021 196.912 152.89 195.278C152.83 195.197 152.788 195.105 152.765 195.008C152.743 194.911 152.74 194.81 152.759 194.712C152.777 194.614 152.815 194.521 152.872 194.437C152.928 194.354 153.001 194.282 153.086 194.227C153.258 194.115 153.469 194.074 153.672 194.112C153.876 194.151 154.055 194.265 154.171 194.431C157.186 198.81 166.229 209.887 171.248 209.449C171.459 209.449 171.835 209.157 172.303 208.442C178.03 199.685 183.41 149.787 182.22 146.708C178.753 140.87 170.735 136.944 170.66 136.9C170.477 136.809 170.339 136.653 170.274 136.465C170.21 136.277 170.223 136.071 170.313 135.893C170.358 135.804 170.421 135.725 170.497 135.66C170.574 135.595 170.664 135.545 170.76 135.514C170.857 135.483 170.959 135.471 171.061 135.478C171.163 135.485 171.262 135.512 171.353 135.557C171.7 135.733 179.884 139.761 183.591 145.992C185.34 148.911 179.537 198.299 174.066 208.486C173.222 210.062 172.348 210.865 171.383 210.952L170.976 210.967Z" fill="#231F20"/>
<path d="M70.4176 158.164C70.4176 158.164 51.1107 172.934 44.7956 257.713L57.9532 261.901C57.9532 261.901 58.5259 197.598 83.6656 149.743L70.4176 158.164Z" fill="white"/>
<path d="M57.9231 262.66C57.8433 262.674 57.7617 262.674 57.6819 262.66L44.5243 258.471C44.3605 258.417 44.2198 258.312 44.1244 258.172C44.029 258.032 43.9841 257.865 43.9968 257.698C50.2968 173.561 69.1365 158.237 69.9353 157.624L83.1381 149.203C83.2818 149.11 83.4537 149.067 83.6259 149.08C83.7982 149.093 83.9609 149.162 84.0876 149.276C84.2161 149.387 84.3035 149.535 84.3362 149.699C84.3688 149.862 84.3451 150.032 84.2685 150.181C59.5056 197.306 58.6465 261.361 58.6465 261.989C58.6399 262.108 58.6069 262.224 58.5497 262.33C58.4925 262.436 58.4124 262.529 58.315 262.602C58.1913 262.652 58.0567 262.672 57.9231 262.66ZM45.5944 257.173L57.1695 260.865C57.3805 252.561 59.6563 195.759 81.6611 151.903L70.8848 158.777C70.1613 159.375 51.7738 175.721 45.5944 257.173Z" fill="#231F20"/>
<path d="M75.0446 249.452C70.3723 249.087 10.9595 249.802 9.82915 249.452C8.69877 249.102 0.786102 334.012 0.786102 334.012H87.9912L75.0446 249.452Z" fill="white"/>
<path d="M87.9762 334.771H0.771044C0.66308 334.77 0.556475 334.748 0.457919 334.705C0.359364 334.662 0.270977 334.6 0.19831 334.523C0.058056 334.366 -0.0123595 334.161 0.00238166 333.954C7.85476 249.788 8.955 249.087 9.37701 248.825C9.47815 248.76 9.59312 248.719 9.71323 248.703C9.83335 248.688 9.95545 248.7 10.0703 248.737C11.0198 248.868 26.6492 248.737 40.4851 248.737C56.3255 248.649 72.7085 248.547 75.1501 248.737C75.3255 248.751 75.4908 248.823 75.6193 248.939C75.7478 249.056 75.832 249.211 75.8585 249.379L88.79 333.954C88.8074 334.06 88.8002 334.169 88.7689 334.272C88.7377 334.376 88.6831 334.471 88.6092 334.552C88.5283 334.634 88.4291 334.696 88.3193 334.734C88.2094 334.772 88.092 334.784 87.9762 334.771ZM1.63013 333.312H87.0719L74.3664 250.211C70.5532 250.08 55.3006 250.211 40.5002 250.211C20.6959 250.328 12.6928 250.357 10.3567 250.211C9.15094 255.45 4.56912 301.788 1.63013 333.268V333.312Z" fill="#231F20"/>
<path d="M74.0499 262.631H13.7629C13.563 262.631 13.3713 262.554 13.23 262.417C13.0887 262.28 13.0093 262.095 13.0093 261.901C13.0093 261.708 13.0887 261.522 13.23 261.385C13.3713 261.248 13.563 261.171 13.7629 261.171H74.0499C74.2497 261.171 74.4414 261.248 74.5827 261.385C74.724 261.522 74.8034 261.708 74.8034 261.901C74.8034 262.095 74.724 262.28 74.5827 262.417C74.4414 262.554 74.2497 262.631 74.0499 262.631Z" fill="#D1D3D4"/>
<path d="M197.307 334.742H197.201C197.005 334.709 196.829 334.605 196.711 334.45C196.593 334.294 196.542 334.101 196.568 333.91C196.658 333.341 205.219 276.291 212.152 232.406C215.423 211.726 205.445 190.301 205.34 190.082C205.292 189.994 205.263 189.897 205.255 189.798C205.247 189.699 205.26 189.599 205.294 189.505C205.327 189.41 205.38 189.324 205.45 189.25C205.519 189.177 205.603 189.117 205.697 189.077C205.791 189.036 205.892 189.014 205.995 189.012C206.098 189.011 206.2 189.03 206.295 189.068C206.39 189.106 206.476 189.162 206.548 189.234C206.619 189.306 206.675 189.391 206.711 189.484C206.817 189.703 216.975 211.507 213.644 232.625C206.711 276.496 198.136 333.545 198.045 334.129C198.02 334.3 197.931 334.457 197.795 334.57C197.659 334.682 197.485 334.744 197.307 334.742Z" fill="#231F20"/>
<path d="M87.9761 334.742C87.7973 334.744 87.6238 334.682 87.488 334.57C87.3521 334.457 87.2632 334.3 87.2376 334.129C87.1472 333.545 78.5714 276.496 71.6384 232.625C68.3075 211.507 78.4659 189.703 78.5714 189.484C78.6078 189.391 78.6635 189.306 78.7351 189.234C78.8067 189.162 78.8927 189.106 78.9877 189.068C79.0827 189.03 79.1848 189.011 79.2877 189.012C79.3905 189.014 79.492 189.036 79.5858 189.077C79.6796 189.117 79.7637 189.177 79.833 189.25C79.9024 189.324 79.9554 189.41 79.9889 189.505C80.0223 189.599 80.0355 189.699 80.0276 189.798C80.0197 189.897 79.9909 189.994 79.9429 190.082C79.8374 190.301 69.8599 211.726 73.1305 232.406C80.0635 276.291 88.6242 333.341 88.7147 333.91C88.7409 334.101 88.6896 334.294 88.5715 334.45C88.4535 334.605 88.2779 334.709 88.0817 334.742H87.9761Z" fill="#231F20"/>
<path d="M79.8374 334.012L83.3491 318.732H201.934L205.445 334.012H79.8374Z" fill="#231F20"/>
<path d="M205.445 334.742H79.8374C79.726 334.742 79.616 334.719 79.5154 334.672C79.4149 334.626 79.3265 334.558 79.257 334.473C79.1874 334.389 79.1384 334.291 79.1136 334.186C79.0888 334.08 79.089 333.971 79.114 333.866L82.6106 318.571C82.6508 318.41 82.7453 318.267 82.879 318.164C83.0128 318.061 83.1782 318.004 83.3491 318.002H201.934C202.105 318.004 202.27 318.061 202.404 318.164C202.537 318.267 202.632 318.41 202.672 318.571L206.169 333.866C206.194 333.971 206.194 334.08 206.169 334.186C206.144 334.291 206.095 334.389 206.026 334.473C205.956 334.558 205.868 334.626 205.767 334.672C205.667 334.719 205.557 334.742 205.445 334.742ZM80.7719 333.282H204.511L201.331 319.447H83.952L80.7719 333.282Z" fill="#231F20"/>
</svg>
